<?xml version="1.0" standalone="no"?>
<!DOCTYPE svg PUBLIC "-//W3C//DTD SVG 20010904//EN"
 "http://www.w3.org/TR/2001/REC-SVG-20010904/DTD/svg10.dtd">
<svg version="1.0" xmlns="http://www.w3.org/2000/svg"
 width="4000.000000pt" height="4000.000000pt" viewBox="0 0 4000.000000 4000.000000"
 preserveAspectRatio="xMidYMid meet">
<metadata>
Created by potrace 1.14, written by Peter Selinger 2001-2017
</metadata>
<g transform="translate(0.000000,4000.000000) scale(0.100000,-0.100000)"
fill="#000000" stroke="none">
<path d="M14678 23995 c-2 -2 -40 -6 -83 -9 -44 -3 -102 -8 -130 -11 -27 -3
-63 -8 -80 -9 -32 -4 -113 -17 -130 -20 -5 -2 -28 -6 -50 -10 -119 -23 -275
-75 -370 -124 -38 -20 -71 -40 -73 -44 -2 -5 -8 -8 -14 -8 -16 0 -112 -66
-199 -135 -151 -123 -272 -267 -335 -402 -15 -32 -28 -60 -29 -63 0 -3 -6 -14
-12 -25 -11 -20 -68 -194 -77 -236 -21 -92 -34 -163 -42 -219 -3 -25 -10 -48
-15 -51 -5 -3 -55 5 -112 18 -141 32 -178 40 -217 48 -32 6 -118 24 -150 31
-14 3 -36 7 -50 9 -14 2 -56 10 -95 19 -38 8 -86 17 -105 20 -19 3 -60 10 -90
16 -30 6 -66 13 -80 16 -59 11 -197 36 -215 40 -11 2 -36 6 -55 8 -20 2 -47 7
-60 10 -14 3 -41 8 -60 11 -19 2 -46 7 -60 10 -33 6 -108 17 -145 21 -16 1
-30 3 -30 4 0 2 -14 4 -155 25 -8 2 -37 6 -65 9 -65 10 -92 14 -135 21 -19 4
-53 8 -75 10 -22 1 -56 5 -75 9 -19 3 -53 8 -75 11 -22 3 -51 7 -65 9 -14 2
-54 7 -90 11 -36 4 -74 9 -85 11 -27 5 -111 15 -160 19 -22 2 -40 4 -40 5 0 1
-13 3 -30 5 -16 1 -52 5 -80 9 -27 4 -66 9 -85 11 -19 3 -62 7 -95 11 -92 9
-120 12 -120 14 0 0 -25 3 -55 6 -29 2 -72 7 -95 10 -22 2 -58 6 -80 8 -54 5
-141 15 -190 22 -22 2 -60 7 -85 9 -25 2 -72 6 -105 9 -90 9 -152 15 -238 22
-43 3 -97 8 -120 9 -322 27 -591 42 -1057 60 -607 24 -1636 19 -2310 -10 -63
-3 -167 -7 -230 -10 -63 -2 -153 -6 -200 -9 -47 -3 -139 -8 -205 -11 -66 -4
-147 -8 -180 -11 -33 -2 -94 -6 -135 -8 -41 -3 -115 -8 -165 -11 -49 -4 -117
-9 -150 -11 -33 -2 -85 -6 -115 -8 -30 -3 -95 -7 -145 -11 -49 -3 -101 -8
-115 -10 -14 -2 -68 -7 -120 -11 -52 -4 -111 -8 -130 -10 -19 -1 -66 -5 -105
-8 -38 -3 -92 -8 -120 -11 -65 -7 -138 -14 -200 -20 -27 -3 -72 -7 -100 -10
-27 -4 -72 -8 -100 -10 -27 -2 -50 -5 -50 -5 0 -1 -22 -4 -50 -5 -27 -2 -68
-6 -90 -9 -22 -3 -69 -8 -105 -11 -36 -3 -76 -8 -90 -10 -14 -3 -52 -8 -85
-11 -77 -8 -98 -10 -169 -19 -33 -4 -71 -9 -85 -10 -47 -5 -135 -16 -172 -21
-20 -2 -54 -6 -75 -9 -52 -5 -111 -13 -154 -20 -19 -3 -55 -7 -80 -10 -25 -3
-58 -7 -75 -10 -16 -2 -48 -7 -70 -9 -69 -8 -139 -17 -170 -23 -16 -3 -46 -7
-65 -9 -33 -3 -90 -12 -134 -20 -10 -2 -37 -6 -60 -8 -22 -3 -52 -8 -66 -11
-14 -3 -43 -7 -65 -10 -22 -2 -56 -7 -75 -10 -19 -4 -48 -8 -65 -10 -16 -2
-41 -6 -55 -8 -32 -6 -119 -19 -145 -23 -11 -1 -22 -3 -25 -4 -3 -1 -9 -2 -14
-1 -5 1 -16 -1 -25 -5 -16 -7 -26 -9 -64 -12 -10 -1 -16 -5 -14 -9 3 -5 8 -48
12 -98 4 -49 8 -106 10 -125 2 -19 4 -39 4 -43 1 -5 4 -6 8 -4 5 3 33 8 63 11
30 4 71 9 90 11 33 5 80 10 175 20 120 12 152 16 175 20 30 4 160 17 215 21
22 1 40 3 40 4 0 1 14 3 30 4 162 15 204 18 230 22 17 2 62 6 100 9 39 3 90 7
115 10 25 2 79 7 120 10 41 4 91 8 110 10 19 2 72 6 116 9 45 4 103 8 130 10
27 3 92 7 144 11 52 3 118 8 145 10 184 14 337 25 459 31 55 2 139 7 186 9 77
5 164 9 405 20 87 4 390 14 635 21 213 6 1106 6 1320 0 356 -10 676 -26 865
-41 28 -2 102 -7 165 -11 100 -6 145 -10 145 -13 0 -1 38 -4 85 -6 47 -3 100
-7 119 -9 19 -3 73 -8 120 -11 47 -4 97 -8 111 -11 14 -2 54 -6 90 -9 36 -3
81 -8 100 -10 19 -3 64 -7 100 -10 36 -3 76 -8 90 -10 14 -3 52 -8 85 -11 70
-7 110 -12 110 -14 0 -1 47 -7 120 -14 22 -3 56 -7 75 -10 19 -3 71 -10 114
-17 44 -6 93 -13 110 -16 17 -2 40 -6 51 -7 90 -12 153 -22 158 -26 1 -1 16
-3 32 -5 39 -4 103 -13 135 -20 28 -6 69 -13 115 -20 38 -5 83 -14 115 -21 13
-3 38 -7 55 -10 16 -2 41 -6 55 -9 30 -7 113 -23 155 -31 43 -7 56 -10 90 -17
32 -8 64 -14 108 -22 15 -3 60 -13 100 -21 39 -9 79 -17 87 -19 8 -1 33 -7 55
-12 22 -6 67 -16 100 -23 33 -7 74 -16 90 -21 17 -5 44 -11 60 -14 17 -2 45
-9 63 -14 18 -5 33 -10 35 -10 4 1 65 -14 202 -48 77 -19 151 -37 164 -39 14
-3 28 -7 32 -10 4 -2 27 -8 51 -13 24 -6 86 -21 138 -36 52 -14 104 -28 115
-30 18 -4 114 -30 310 -86 39 -11 75 -21 80 -22 6 -1 16 -6 23 -10 6 -5 12 -6
12 -3 0 3 18 -1 40 -9 22 -8 41 -14 43 -13 2 1 110 -30 137 -40 8 -3 21 -6 28
-8 28 -5 230 -67 280 -85 29 -10 56 -18 60 -17 4 2 21 -2 37 -9 35 -13 152
-52 177 -58 86 -20 127 -40 131 -62 2 -13 1 -26 -4 -28 -4 -3 -4 -18 0 -33 4
-15 5 -38 1 -52 -4 -14 -3 -35 1 -47 5 -15 5 -23 -2 -23 -6 0 -7 -5 -4 -10 7
-11 8 -63 2 -116 -2 -18 0 -40 4 -50 3 -11 3 -29 -2 -41 -5 -15 -5 -23 2 -23
6 0 6 -6 0 -18 -5 -10 -6 -24 -1 -31 4 -8 5 -25 1 -40 -7 -28 -6 -90 3 -98 2
-3 1 -16 -4 -29 -6 -16 -6 -24 1 -24 6 0 6 -6 0 -18 -5 -10 -6 -24 -1 -31 4
-8 4 -25 0 -40 -4 -14 -4 -36 1 -48 4 -12 4 -25 -1 -28 -5 -3 -5 -18 0 -34 4
-16 6 -31 4 -33 -7 -8 -10 -86 -3 -104 3 -11 3 -29 -2 -41 -5 -15 -5 -23 2
-23 6 0 6 -6 0 -18 -5 -10 -6 -24 -1 -31 4 -8 5 -25 1 -40 -7 -28 -6 -90 3
-98 2 -3 1 -16 -4 -29 -6 -16 -6 -24 1 -24 6 0 7 -6 1 -16 -11 -20 -4 -54 12
-55 6 -1 184 -2 396 -3 l385 -1 0 -1970 c-1 -1083 3 -1972 6 -1975 6 -4 2081
-5 2100 -1 3 0 5 886 5 1967 -1 1300 2 1968 9 1973 6 4 212 7 458 7 360 -1
449 -4 456 -14 9 -15 63 -21 102 -11 15 4 32 3 40 -1 7 -5 21 -4 31 1 12 6 18
6 18 0 0 -7 8 -7 24 -1 13 5 26 6 29 4 8 -9 70 -10 98 -3 15 4 32 3 40 -1 7
-5 21 -4 31 1 12 6 18 6 18 0 0 -7 8 -7 24 -1 13 5 26 6 29 4 8 -9 70 -10 98
-3 15 4 32 3 40 -1 7 -5 21 -4 31 1 10 6 18 6 18 1 0 -5 18 -6 40 -2 27 5 43
4 47 -4 4 -6 8 -508 9 -1116 1 -608 5 -1152 8 -1210 6 -121 15 -239 21 -290 3
-19 7 -57 10 -85 3 -27 8 -61 10 -75 3 -14 7 -41 11 -60 5 -32 20 -112 28
-150 10 -49 36 -134 56 -185 41 -101 66 -155 72 -155 5 0 8 -6 8 -14 0 -18 91
-170 125 -210 14 -15 25 -31 25 -35 0 -6 100 -107 158 -161 82 -76 189 -133
387 -206 11 -4 27 -9 35 -10 8 -2 42 -10 75 -19 33 -10 69 -19 80 -21 11 -2
43 -8 70 -13 28 -6 68 -12 90 -15 22 -3 52 -8 67 -11 73 -14 321 -28 523 -28
167 -1 436 9 485 18 14 2 59 6 100 9 41 3 86 7 100 10 14 2 45 7 70 10 25 3
65 9 90 12 25 4 56 7 70 9 14 1 36 5 50 8 14 4 41 9 60 11 19 2 35 5 35 6 0 1
11 4 25 5 57 8 130 23 225 45 28 6 61 14 75 16 59 11 61 13 55 57 -3 23 -8 67
-10 97 -3 30 -7 73 -9 95 -3 22 -8 69 -11 105 -11 115 -18 181 -31 295 -3 28
-7 68 -9 90 -2 22 -4 40 -5 40 -1 0 -3 20 -5 45 -5 63 -20 220 -30 310 -3 19
-6 58 -9 85 -2 28 -8 75 -11 105 -4 30 -8 72 -9 92 -2 21 -5 40 -7 43 -3 2
-23 -1 -45 -7 -21 -6 -41 -12 -44 -13 -3 -1 -23 -5 -45 -10 -22 -4 -44 -10
-50 -14 -5 -3 -14 -6 -20 -7 -30 -5 -75 -14 -110 -23 -22 -5 -60 -13 -85 -16
-24 -4 -47 -8 -51 -11 -13 -7 -137 -17 -214 -16 -92 1 -175 26 -232 69 -51 38
-72 60 -66 67 4 3 2 6 -3 6 -25 0 -71 117 -81 205 -2 21 -7 44 -11 50 -12 18
-10 2155 2 2156 6 0 79 2 161 4 241 6 501 19 620 30 39 3 93 8 120 10 28 3 75
7 105 11 30 3 67 7 82 8 15 1 30 5 35 9 4 5 8 355 8 778 l0 769 -85 -5 c-47
-3 -121 -7 -165 -10 -92 -7 -267 -14 -475 -20 -80 -2 -145 -5 -145 -5 0 -5
-265 -5 -267 -1 0 4 -2 477 -3 1053 -1 576 -4 1050 -6 1053 -5 5 -90 -37 -230
-113 -103 -55 -297 -157 -404 -211 -49 -25 -92 -48 -95 -51 -5 -5 -26 -16
-235 -125 -60 -32 -146 -77 -190 -100 -44 -23 -129 -68 -190 -100 -60 -32
-141 -75 -180 -95 -38 -21 -115 -61 -170 -90 -55 -29 -106 -57 -112 -62 -7 -6
-13 -7 -13 -3 0 5 -8 2 -17 -6 -10 -8 -56 -34 -103 -58 -47 -24 -99 -52 -115
-62 l-30 -18 0 -476 0 -477 -80 8 c-44 3 -100 8 -125 9 -25 2 -45 4 -45 5 0 1
-11 3 -25 5 -43 4 -154 16 -180 20 -14 2 -43 5 -65 8 -22 3 -65 9 -95 13 -30
3 -64 8 -75 10 -11 3 -42 7 -70 10 -27 3 -56 7 -64 10 -8 2 -30 7 -50 10 -20
3 -88 15 -151 26 -63 11 -126 22 -140 24 -14 1 -92 19 -175 39 -82 19 -159 37
-170 40 -11 2 -36 9 -55 15 -19 5 -48 13 -65 16 -31 5 -46 20 -40 38 2 6 7 29
10 50 16 109 65 258 100 304 45 59 138 130 179 136 6 1 16 4 21 8 26 16 127
22 345 22 234 -1 329 -6 425 -24 83 -15 115 -19 119 -12 2 4 7 24 10 44 3 21
10 57 15 80 6 24 13 59 16 78 3 19 8 42 10 50 2 8 6 26 9 40 2 14 9 52 15 85
10 55 13 71 25 124 2 10 7 34 10 52 6 35 9 49 26 134 15 75 20 97 25 130 6 32
12 64 21 105 8 37 13 67 19 97 2 15 9 49 14 77 37 182 36 176 9 175 -13 0 -41
2 -63 5 -36 4 -97 10 -220 22 -56 6 -122 13 -175 19 -25 2 -78 7 -117 9 -40 3
-76 6 -80 9 -5 2 -26 5 -48 6 -22 1 -60 4 -85 6 -60 6 -145 13 -255 21 -49 3
-112 8 -140 10 -70 6 -682 13 -687 9z"/>
<path d="M20575 23870 c-2 -3 -3 -1707 -3 -3787 l1 -3782 298 -3 c164 -2 308
-1 321 2 13 4 42 3 66 0 23 -4 45 -4 47 0 2 4 26 4 52 0 27 -3 60 -3 73 0 14
3 41 3 60 0 19 -3 46 -3 60 0 14 3 41 3 60 0 19 -3 45 -4 58 -1 12 3 67 4 122
1 55 -3 110 -2 122 1 13 3 39 2 58 -1 19 -3 46 -3 60 0 14 3 41 3 60 0 19 -3
46 -3 60 0 14 3 44 3 68 0 23 -4 45 -4 47 0 2 3 25 4 52 1 26 -4 114 -5 194
-3 l146 3 2 51 c0 28 3 53 6 56 3 3 0 11 -6 19 -9 10 -8 13 0 13 7 0 9 5 5 12
-8 13 -9 196 -1 204 3 4 2 17 -3 30 -6 14 -6 26 0 29 5 3 7 11 5 18 -10 25
-12 78 -4 83 4 2 4 16 -1 29 -6 15 -6 27 1 30 5 4 6 11 3 17 -8 13 -8 228 0
236 3 3 1 11 -5 19 -9 10 -8 13 0 13 7 0 9 5 5 12 -9 14 -8 188 1 196 3 3 0
11 -6 19 -9 10 -8 13 0 13 7 0 9 5 5 12 -8 13 -8 347 0 356 3 3 1 11 -5 19 -9
10 -8 13 0 13 7 0 9 5 5 12 -9 14 -8 188 1 196 3 3 0 11 -6 19 -9 10 -8 13 0
13 7 0 9 5 5 12 -8 13 -8 347 0 356 3 3 1 11 -5 19 -9 10 -8 13 0 13 7 0 9 5
5 12 -9 14 -8 188 1 196 3 3 0 11 -6 19 -9 10 -8 13 0 13 7 0 9 5 5 12 -8 13
-8 347 0 356 3 3 1 11 -5 19 -9 10 -8 13 0 13 7 0 9 5 5 12 -9 14 -8 188 1
196 3 3 0 11 -6 19 -9 10 -8 13 0 13 7 0 9 5 5 11 -8 13 -8 429 0 437 3 3 1
11 -5 19 -9 10 -8 13 0 13 7 0 9 5 5 11 -8 13 -8 269 0 277 3 3 1 11 -5 19 -9
10 -8 13 0 13 7 0 9 5 4 13 -11 18 -12 36 -2 42 4 3 4 16 -1 30 -6 15 -6 27 0
30 5 3 7 11 5 18 -10 25 -12 78 -4 83 4 2 4 16 -1 29 -6 15 -6 27 1 30 5 4 6
11 3 17 -8 13 -8 228 0 236 3 3 1 11 -5 19 -9 10 -8 13 0 13 7 0 9 5 5 12 -9
14 -8 188 1 196 3 3 0 11 -6 19 -9 10 -8 13 0 13 7 0 9 5 5 12 -8 13 -9 196
-1 204 3 4 2 17 -3 30 -6 14 -6 26 0 29 5 3 7 11 5 18 -10 25 -12 78 -4 83 4
2 4 16 -1 29 -6 15 -6 27 1 30 5 4 7 11 3 16 -7 12 -8 309 0 316 3 4 1 12 -5
20 -9 10 -8 13 0 13 7 0 9 5 5 11 -8 13 -8 269 0 277 3 3 1 11 -5 19 -9 10 -8
13 0 13 7 0 9 5 5 11 -8 13 -8 269 0 277 3 3 1 11 -5 19 -9 10 -8 13 0 13 7 0
9 5 5 11 -8 13 -8 269 0 277 3 3 1 11 -5 19 -9 10 -8 13 0 13 7 0 9 5 4 13
-11 18 -12 36 -2 42 4 3 4 16 -1 30 -6 15 -6 27 0 30 5 3 7 11 5 18 -10 25
-12 78 -4 83 4 2 4 16 -1 29 -6 15 -6 27 1 30 5 4 6 11 3 17 -8 13 -8 228 0
236 3 3 1 11 -5 19 -9 10 -8 13 0 13 7 0 9 5 5 12 -9 14 -8 188 1 196 3 3 0
11 -6 19 -9 10 -8 13 0 13 7 0 9 5 5 12 -8 13 -9 196 -1 204 3 4 2 16 -3 28
-4 13 -4 29 0 36 5 8 6 18 3 24 -4 5 -6 28 -4 50 l2 41 -1042 0 c-572 0 -1042
-2 -1044 -5z"/>
<path d="M23556 23860 c-7 -25 -4 -1430 3 -1431 3 -1 477 -2 1053 -3 692 -1
1049 2 1051 9 3 9 1 1389 -2 1425 -1 13 -123 15 -1051 15 -925 0 -1051 -2
-1054 -15z"/>
<path d="M38955 23720 c-2 -3 -19 -7 -37 -8 -19 -1 -45 -5 -58 -8 -14 -3 -29
-6 -35 -7 -5 -2 -16 -6 -22 -10 -7 -5 -13 -6 -13 -3 0 3 -16 -2 -35 -10 -19
-8 -35 -12 -35 -8 0 3 -12 -3 -27 -13 -16 -11 -40 -24 -55 -31 -84 -36 -239
-163 -305 -250 -10 -13 -28 -36 -40 -52 -13 -15 -23 -33 -23 -38 0 -6 -6 -17
-14 -25 -25 -25 -94 -199 -117 -293 -22 -92 -29 -255 -14 -339 11 -67 12 -69
17 -85 3 -8 13 -42 23 -75 67 -217 266 -443 480 -544 87 -41 136 -57 270 -87
31 -7 225 -7 277 0 25 3 58 10 72 16 14 5 26 8 26 5 0 -17 224 83 290 129 222
155 357 364 405 626 20 110 13 322 -14 392 -5 13 -9 25 -9 28 -1 38 -87 239
-112 260 -3 3 -13 16 -21 30 -43 67 -117 142 -232 236 -54 44 -219 117 -322
143 -88 21 -311 36 -320 21z m305 -250 c208 -70 349 -189 443 -375 28 -56 60
-156 62 -195 0 -14 4 -30 6 -35 3 -6 5 -50 4 -100 -2 -75 -5 -106 -20 -165
-21 -83 -74 -198 -117 -254 -62 -80 -227 -220 -246 -208 -2 2 -8 -1 -12 -7 -6
-11 -94 -45 -160 -63 -64 -17 -230 -18 -310 -2 -83 17 -239 88 -282 128 -16
14 -28 23 -28 22 0 -4 -87 84 -107 108 -69 82 -135 236 -150 346 -17 128 9
327 50 378 5 6 7 12 3 12 -17 0 84 156 141 215 58 62 203 163 243 170 3 0 28
9 56 18 83 28 133 35 249 32 80 -3 127 -9 175 -25z"/>
<path d="M38710 23238 c-2 -65 0 -932 3 -934 2 -3 173 -6 223 -5 19 1 21 7 22
109 1 59 2 114 2 122 0 8 -1 40 -3 70 -2 30 0 60 5 67 18 23 128 -4 155 -39
13 -17 66 -149 66 -165 0 -7 4 -13 8 -13 3 0 10 -10 14 -22 4 -13 8 -25 10
-28 1 -3 5 -14 10 -25 26 -69 31 -76 46 -72 9 3 24 0 33 -5 10 -6 16 -5 16 2
0 8 6 8 20 0 14 -8 20 -8 20 0 0 8 6 8 20 0 14 -8 20 -8 20 0 0 6 5 8 12 4 12
-7 78 -7 86 0 3 4 -38 114 -69 183 -10 24 -19 45 -19 47 0 3 -5 17 -11 33 -6
15 -9 28 -7 29 2 0 -2 7 -8 15 -6 8 -16 30 -23 49 -11 35 -32 61 -80 100 -24
20 -24 20 -3 20 12 0 22 4 22 9 0 5 11 12 25 15 31 8 73 48 105 100 18 29 23
52 22 96 -1 113 -72 197 -195 234 -65 19 -547 23 -547 4z m457 -182 c51 -26
66 -51 60 -97 -3 -22 -15 -52 -28 -65 -27 -29 -104 -47 -184 -42 -56 3 -59 4
-59 28 0 14 3 31 8 38 4 6 4 12 -1 12 -6 0 -10 141 -4 146 1 0 41 -1 91 -2 53
-2 101 -9 117 -18z"/>
<path d="M35574 21921 c-2 -2 -34 -5 -71 -7 -104 -4 -229 -17 -308 -29 -16 -3
-46 -8 -65 -10 -67 -9 -141 -22 -170 -30 -8 -2 -31 -7 -50 -10 -19 -3 -53 -11
-75 -17 -22 -6 -46 -13 -54 -14 -12 -2 -45 -11 -71 -19 -3 -1 -25 -7 -50 -14
-80 -23 -195 -63 -204 -72 -6 -5 -16 -9 -24 -9 -7 0 -39 -12 -70 -26 -113 -51
-187 -86 -202 -94 -8 -5 -31 -17 -50 -27 -46 -23 -181 -107 -252 -158 -31 -22
-66 -47 -78 -55 -48 -33 -85 -65 -189 -158 -115 -104 -191 -186 -289 -312 -37
-47 -69 -87 -72 -90 -5 -5 -71 -104 -116 -175 -29 -46 -128 -237 -127 -245 0
-3 -6 -14 -13 -25 -8 -11 -14 -27 -14 -36 0 -9 -7 -22 -15 -29 -9 -7 -14 -15
-11 -17 2 -2 -7 -32 -21 -66 -26 -67 -75 -213 -79 -237 -1 -8 -9 -40 -17 -70
-13 -48 -21 -82 -42 -190 -5 -23 -9 -47 -20 -125 -5 -30 -11 -81 -20 -165 -7
-61 -17 -248 -15 -285 5 -106 4 -135 -3 -135 -5 0 -5 -5 -1 -11 4 -6 8 -44 9
-83 4 -91 14 -229 20 -281 7 -54 16 -116 21 -140 1 -11 5 -33 8 -50 3 -16 10
-52 16 -80 5 -27 13 -61 16 -75 3 -14 12 -47 20 -75 8 -27 15 -52 15 -55 7
-29 32 -116 39 -135 12 -30 23 -59 25 -67 2 -5 4 -10 5 -13 1 -3 3 -8 4 -12 1
-5 9 -24 18 -43 8 -19 21 -52 28 -73 8 -20 18 -37 23 -37 4 0 5 -5 2 -10 -4
-6 -2 -16 3 -23 6 -7 31 -52 56 -100 51 -97 54 -103 135 -227 47 -72 153 -219
186 -256 215 -246 375 -386 605 -531 55 -34 203 -114 220 -118 3 -1 19 -7 35
-14 105 -45 263 -96 420 -136 44 -12 195 -43 238 -50 19 -3 116 -18 197 -30
14 -3 54 -7 90 -10 36 -4 81 -8 100 -10 98 -9 404 -27 455 -25 6 0 40 1 78 2
38 2 69 -1 71 -7 3 -5 5 -5 5 2 1 8 10 9 30 3 16 -4 32 -6 34 -3 3 2 75 6 160
8 85 2 181 6 213 9 33 3 93 8 134 12 71 5 116 10 185 18 111 13 142 17 155 21
8 2 38 7 65 10 41 5 280 54 335 69 8 2 33 9 55 14 151 38 462 152 477 176 4 6
8 8 8 3 0 -4 18 4 40 18 22 14 43 25 48 25 4 0 17 7 27 15 35 27 126 85 135
85 4 0 10 7 14 15 3 8 11 15 18 15 7 0 24 10 38 23 14 12 56 47 94 77 39 30
79 64 91 75 12 11 46 43 76 71 96 91 191 196 288 319 34 44 68 87 75 96 22 27
166 240 166 245 0 3 14 25 30 49 38 55 38 65 -2 66 -18 1 -49 3 -68 4 -19 2
-62 6 -95 9 -33 3 -80 8 -105 11 -73 9 -124 14 -207 20 -43 3 -91 8 -108 10
-16 3 -59 8 -95 10 -36 3 -83 7 -105 10 -22 2 -67 7 -100 10 -54 5 -99 9 -191
19 -17 2 -36 6 -43 10 -6 4 -11 2 -11 -4 0 -6 -5 -8 -10 -5 -6 3 -34 8 -63 10
-58 5 -151 14 -212 21 -22 3 -69 7 -105 9 -36 3 -74 6 -85 9 -11 2 -56 7 -100
11 -44 4 -100 9 -125 11 -25 3 -67 6 -95 9 -27 2 -60 6 -72 9 -21 4 -53 -15
-53 -32 0 -4 -15 -23 -33 -43 -17 -20 -46 -51 -62 -70 -25 -29 -140 -129 -180
-157 -100 -70 -270 -145 -380 -166 -16 -4 -41 -9 -55 -11 -189 -37 -448 -15
-600 52 -75 32 -125 58 -128 66 -2 4 -8 7 -14 7 -6 0 -26 11 -44 25 -18 14
-36 25 -39 25 -4 0 -12 6 -19 13 -7 6 -32 28 -56 47 -105 85 -166 163 -224
284 -21 43 -39 84 -41 90 -1 6 -7 22 -12 36 -6 14 -9 28 -6 33 2 4 -1 7 -6 7
-6 0 -10 3 -9 8 2 7 -18 91 -29 122 -4 8 -8 24 -10 35 -2 11 -8 43 -13 70 -16
81 -23 133 -21 150 1 7 702 10 2084 10 l2082 0 0 108 c0 78 4 110 13 116 11 6
12 47 8 197 -4 104 -8 207 -10 229 -3 22 -7 72 -11 110 -13 135 -31 280 -41
330 -3 11 -7 34 -9 50 -3 17 -7 41 -10 55 -4 14 -9 39 -11 55 -9 49 -63 262
-80 312 -9 25 -17 53 -19 62 -2 9 -9 30 -16 46 -7 17 -13 33 -14 38 -2 4 -4 9
-5 12 -1 3 -3 8 -4 13 -4 18 -49 129 -71 176 -13 28 -29 62 -35 76 -6 14 -21
41 -33 61 -12 20 -39 66 -60 102 -21 36 -44 71 -52 77 -8 7 -15 19 -15 26 0 8
-4 14 -9 14 -5 0 -12 8 -15 18 -3 9 -16 28 -28 42 -13 14 -45 55 -73 90 -82
107 -201 232 -305 320 -36 30 -67 57 -70 60 -13 14 -152 112 -220 155 -111 72
-305 175 -327 175 -7 0 -13 5 -13 12 0 6 -3 9 -6 5 -4 -3 -20 1 -36 9 -29 15
-157 61 -191 69 -9 2 -22 7 -27 10 -5 3 -18 8 -27 10 -10 2 -72 17 -138 34
-66 16 -133 32 -150 35 -16 3 -41 7 -55 10 -14 3 -41 7 -60 10 -19 3 -46 8
-60 10 -91 17 -344 41 -535 52 -122 6 -605 11 -611 5z m187 -1281 c38 11 305
5 347 -8 17 -6 32 -9 32 -7 0 2 18 -2 40 -10 22 -8 41 -14 43 -13 1 1 25 -7
52 -17 141 -53 290 -163 382 -282 42 -54 114 -191 142 -273 13 -36 26 -72 29
-80 3 -8 6 -19 7 -25 0 -5 4 -17 7 -25 6 -14 24 -91 33 -136 2 -11 4 -19 5
-19 1 0 3 -9 5 -20 3 -18 7 -42 21 -145 3 -19 7 -45 9 -57 l4 -23 -1031 0
-1030 0 6 69 c4 37 9 79 11 92 3 13 8 38 11 54 8 45 25 118 32 135 7 20 7 21
17 55 5 17 14 45 22 62 7 18 13 34 12 35 -5 18 142 268 163 276 4 2 8 8 8 14
0 5 33 42 73 82 101 101 261 203 347 221 19 4 40 11 46 17 7 5 16 8 20 7 5 -1
11 0 14 1 3 1 19 4 35 6 17 3 34 10 40 15 6 6 11 6 13 0 2 -5 15 -6 33 -1z"/>
<path d="M2657 21874 c-1 -1 -60 -5 -132 -8 -71 -4 -155 -9 -185 -12 -30 -3
-77 -7 -105 -9 -93 -9 -199 -22 -275 -35 -30 -5 -71 -12 -90 -15 -82 -14 -270
-57 -335 -77 -38 -12 -76 -21 -82 -21 -7 0 -13 -3 -13 -7 0 -3 -9 -6 -20 -7
-10 -1 -34 -8 -52 -17 -18 -8 -55 -24 -83 -36 -78 -33 -120 -54 -123 -62 -2
-5 -12 -8 -22 -8 -10 0 -20 -3 -22 -7 -3 -8 -50 -36 -105 -62 -18 -8 -33 -19
-33 -23 0 -4 -7 -8 -15 -8 -8 0 -15 -4 -15 -10 0 -5 -5 -10 -10 -10 -6 0 -35
-18 -65 -40 -30 -22 -57 -40 -60 -40 -3 0 -13 -8 -23 -17 -11 -10 -48 -43 -83
-75 -85 -75 -97 -87 -146 -144 -23 -27 -53 -62 -68 -79 -37 -43 -125 -172
-125 -183 0 -5 -8 -20 -18 -33 -11 -13 -33 -60 -49 -104 -17 -44 -34 -89 -38
-100 -10 -24 -11 -31 -20 -74 -3 -19 -8 -38 -11 -43 -3 -4 -7 -22 -9 -40 -3
-18 -8 -60 -13 -94 -4 -34 -8 -82 -7 -108 0 -25 -2 -46 -5 -46 -3 0 -5 -16 -5
-35 0 -19 3 -35 6 -35 3 0 3 -20 -1 -45 -4 -25 -5 -47 -2 -50 3 -3 7 -22 9
-43 7 -83 26 -198 36 -209 5 -7 7 -13 4 -13 -3 0 -1 -15 4 -32 6 -18 12 -40
14 -49 14 -64 99 -241 160 -335 37 -56 54 -78 119 -155 68 -81 194 -205 262
-257 74 -57 138 -102 145 -102 4 0 14 -6 21 -14 20 -19 210 -110 287 -135 105
-36 300 -92 402 -115 8 -3 71 -18 140 -35 68 -16 138 -32 154 -35 17 -3 62
-13 100 -21 83 -19 98 -22 149 -29 21 -4 41 -8 45 -10 3 -3 25 -7 47 -10 38
-6 55 -9 107 -21 12 -3 63 -12 112 -21 109 -19 124 -22 150 -27 11 -3 40 -8
65 -12 25 -4 70 -13 100 -21 30 -7 71 -16 90 -19 19 -3 49 -10 66 -16 17 -5
44 -12 60 -14 50 -7 111 -22 409 -99 57 -15 132 -40 143 -48 6 -6 12 -7 12 -3
0 4 6 2 13 -4 8 -6 16 -9 19 -6 3 3 11 -1 18 -10 7 -8 18 -15 24 -15 15 0 93
-66 123 -103 25 -31 52 -95 61 -143 25 -139 -14 -251 -123 -358 -37 -36 -71
-66 -76 -66 -4 0 -25 -26 -46 -57 -21 -32 -44 -65 -52 -72 -20 -22 -114 -52
-122 -39 -4 6 -9 6 -12 1 -8 -13 -251 -4 -327 12 -14 3 -41 7 -60 9 -19 2 -73
11 -120 21 -106 20 -109 21 -187 39 -66 15 -156 43 -218 67 -16 7 -33 13 -36
13 -15 2 -109 68 -109 77 0 5 -7 9 -15 9 -8 0 -15 3 -15 8 0 4 -23 30 -50 59
-28 29 -50 54 -50 57 0 3 -13 24 -29 48 -37 55 -113 218 -126 270 -7 27 -9 28
-59 23 -28 -3 -76 -8 -106 -10 -61 -5 -120 -11 -195 -19 -80 -9 -166 -17 -220
-21 -107 -9 -162 -14 -210 -20 -27 -4 -72 -8 -100 -10 -27 -2 -50 -4 -50 -5 0
0 -27 -3 -60 -5 -33 -2 -80 -6 -105 -10 -25 -3 -67 -7 -95 -10 -52 -4 -172
-16 -215 -20 -89 -9 -191 -19 -225 -21 -22 -1 -40 -3 -40 -4 0 -1 -20 -3 -45
-5 -25 -1 -70 -5 -100 -9 -30 -3 -84 -9 -120 -12 -84 -8 -133 -12 -143 -13 -5
-1 -6 -10 -2 -20 3 -11 8 -29 10 -40 11 -47 14 -57 25 -86 7 -16 13 -37 14
-45 3 -19 15 -50 66 -175 45 -108 111 -232 178 -335 31 -47 58 -87 61 -90 3
-3 22 -25 41 -50 66 -87 202 -227 281 -291 22 -19 57 -47 76 -64 71 -61 268
-161 428 -218 102 -36 295 -93 350 -103 17 -3 59 -12 94 -20 36 -8 79 -17 95
-19 17 -2 42 -7 56 -9 14 -3 43 -7 65 -11 22 -3 54 -7 70 -10 34 -5 113 -15
165 -21 19 -2 51 -6 70 -8 56 -7 239 -19 307 -20 35 -1 63 -4 63 -7 0 -8 757
-5 765 3 4 4 18 3 31 -2 13 -5 24 -6 24 -2 0 4 17 8 38 8 46 2 199 14 232 19
14 2 50 6 80 10 87 10 328 51 362 61 10 3 30 7 45 10 33 6 208 51 243 63 14 5
34 12 45 17 11 4 28 9 38 11 10 1 31 10 47 18 16 8 34 15 39 15 19 0 215 93
315 150 58 32 195 123 241 159 22 17 53 42 69 54 50 38 209 201 251 255 21 29
43 52 47 52 4 0 8 4 8 10 0 5 15 31 34 57 43 61 153 279 153 303 0 3 6 16 13
30 8 14 15 30 16 35 2 6 12 35 23 66 11 31 22 67 25 80 3 13 12 51 20 85 15
60 21 102 32 199 8 70 11 245 4 245 -3 0 -5 24 -6 53 -1 54 -8 104 -29 195 -3
12 -7 32 -10 43 -5 25 -24 87 -32 109 -4 8 -7 17 -8 20 -1 3 -7 18 -13 33 -7
16 -12 33 -12 38 0 5 -7 21 -16 34 -9 14 -12 25 -8 25 5 0 5 4 -1 8 -5 4 -25
36 -44 72 -40 76 -98 165 -155 235 -52 65 -189 201 -246 245 -25 19 -47 37
-50 40 -3 3 -23 17 -45 31 -189 125 -345 199 -540 260 -38 11 -77 24 -85 27
-8 3 -24 7 -35 9 -11 2 -27 6 -35 10 -8 3 -17 7 -20 8 -42 10 -111 27 -121 28
-8 2 -20 6 -26 10 -7 5 -13 6 -13 4 0 -3 -17 -1 -37 5 -103 26 -299 65 -368
74 -22 2 -47 7 -55 10 -8 3 -33 7 -55 10 -22 3 -62 9 -90 15 -27 5 -68 11 -90
14 -93 10 -132 15 -165 21 -19 3 -60 8 -90 10 -30 2 -67 6 -82 10 -15 3 -41 7
-58 9 -18 3 -39 7 -49 9 -9 3 -36 8 -61 11 -25 2 -56 7 -70 10 -14 3 -38 7
-55 10 -16 3 -52 10 -80 15 -27 5 -66 12 -85 14 -33 5 -82 15 -105 20 -5 2
-28 6 -50 10 -22 4 -53 12 -70 17 -116 33 -174 54 -197 70 -14 11 -30 19 -35
19 -19 0 -121 106 -142 147 -46 92 -42 216 11 318 48 93 136 153 283 195 44
12 87 24 95 27 23 8 117 16 192 17 38 1 68 5 68 9 0 5 4 5 10 2 5 -3 38 -8 72
-10 35 -3 74 -7 88 -10 106 -21 99 -19 133 -33 16 -7 34 -12 41 -12 6 0 17 -5
24 -12 7 -7 12 -9 12 -5 0 11 203 -95 221 -115 9 -10 21 -18 28 -18 6 0 11 -4
11 -8 0 -5 18 -28 40 -53 41 -44 123 -199 136 -254 8 -34 23 -57 34 -50 4 2
38 7 76 10 38 3 87 7 109 10 22 3 67 7 100 10 33 3 78 8 100 10 22 3 63 7 90
10 28 2 82 7 120 11 39 4 87 8 107 8 21 1 38 3 38 6 0 3 12 5 28 6 24 1 86 7
207 19 22 3 67 7 100 9 33 3 80 8 105 11 72 8 160 17 305 30 22 2 40 4 40 5 0
2 52 7 160 14 44 3 80 6 80 7 0 2 45 9 90 13 28 3 52 5 55 6 3 1 15 1 28 0 40
-3 32 20 -88 260 -31 63 -67 131 -78 150 -12 19 -25 42 -29 50 -11 26 -124
192 -172 255 -96 126 -269 281 -419 376 -103 66 -321 171 -382 184 -8 2 -28 9
-45 15 -16 7 -41 14 -55 17 -13 2 -30 9 -37 15 -7 6 -13 8 -13 5 0 -3 -15 -1
-32 5 -41 12 -210 48 -258 54 -19 2 -46 6 -60 9 -14 3 -43 7 -65 9 -22 3 -67
8 -100 11 -136 15 -205 20 -425 31 -114 5 -639 12 -643 8z"/>
<path d="M8967 21874 c-1 -1 -55 -5 -120 -8 -65 -3 -134 -8 -155 -11 -20 -3
-53 -7 -72 -8 -19 -2 -40 -6 -46 -9 -5 -4 -19 -6 -29 -4 -11 2 -50 -3 -88 -10
-37 -7 -85 -16 -107 -19 -21 -3 -92 -19 -157 -36 -65 -16 -127 -31 -138 -34
-34 -8 -209 -65 -230 -75 -11 -5 -45 -19 -75 -31 -30 -11 -66 -26 -80 -32 -14
-6 -28 -11 -32 -11 -3 -1 -9 -4 -13 -8 -4 -4 -50 -28 -104 -54 -53 -26 -98
-50 -101 -53 -3 -4 -18 -13 -35 -22 -33 -16 -207 -128 -215 -138 -3 -3 -27
-22 -55 -41 -27 -19 -57 -41 -66 -50 -9 -8 -41 -35 -70 -60 -75 -62 -299 -289
-345 -350 -21 -27 -42 -50 -46 -50 -4 0 -8 -6 -8 -14 0 -8 -4 -16 -9 -18 -28
-10 -271 -399 -271 -434 0 -8 -4 -14 -10 -14 -5 0 -10 -9 -10 -20 0 -11 -5
-20 -10 -20 -6 0 -9 -3 -8 -7 1 -5 -6 -25 -15 -47 -9 -21 -17 -40 -17 -41 0
-1 -8 -20 -17 -41 -9 -22 -17 -41 -18 -44 -1 -3 -5 -12 -8 -20 -8 -19 -60
-182 -63 -195 -1 -5 -7 -30 -14 -55 -15 -57 -25 -99 -34 -150 -4 -24 -11 -62
-20 -105 -2 -11 -7 -45 -11 -75 -4 -30 -9 -62 -10 -71 -25 -132 -24 -666 1
-792 2 -12 7 -42 10 -67 3 -25 7 -52 9 -60 2 -8 7 -28 10 -45 35 -200 125
-473 220 -665 74 -152 225 -395 299 -485 155 -188 198 -235 310 -344 98 -95
90 -88 158 -141 99 -79 120 -95 132 -99 6 -2 13 -7 16 -10 35 -43 393 -233
545 -290 33 -13 69 -27 80 -32 25 -10 175 -60 195 -64 8 -2 35 -9 60 -16 25
-7 47 -13 50 -14 3 0 23 -5 45 -10 22 -4 45 -9 50 -11 42 -12 219 -44 265 -49
19 -2 51 -6 70 -9 19 -3 59 -7 87 -9 29 -1 53 -4 53 -7 0 -3 32 -5 71 -5 39 0
73 -3 74 -6 6 -8 567 -8 590 1 11 4 30 4 43 -1 12 -5 22 -5 22 -1 0 4 15 8 33
8 33 1 149 12 202 19 17 3 48 7 70 10 22 3 76 12 120 20 44 8 91 16 105 19 14
2 43 9 65 14 22 6 51 13 65 16 77 15 347 100 445 141 135 56 310 145 445 228
38 23 212 147 220 156 3 3 28 24 55 46 54 42 217 204 275 272 266 311 456 648
567 1008 13 44 26 87 28 95 2 8 11 44 20 80 9 36 17 74 19 85 2 11 9 49 16 85
7 36 14 81 15 100 2 19 4 35 5 35 2 0 4 16 16 145 15 153 8 590 -10 686 -2 12
-7 45 -11 75 -3 30 -8 61 -10 69 -3 8 -7 31 -9 50 -3 19 -8 46 -11 60 -4 14
-7 32 -7 40 0 8 -5 21 -11 28 -5 6 -7 12 -4 12 3 0 1 17 -5 38 -5 20 -11 50
-13 65 -3 16 -8 34 -12 40 -4 7 -8 15 -9 20 -1 4 -3 10 -4 15 -1 4 -3 12 -4
17 -1 6 -5 17 -8 25 -3 8 -25 67 -48 130 -46 125 -129 301 -185 394 -19 32
-35 62 -35 67 0 5 -4 9 -10 9 -5 0 -10 5 -10 10 0 12 -41 73 -52 78 -5 2 -8 9
-8 16 0 7 -9 21 -20 31 -11 10 -20 24 -20 32 0 7 -4 13 -8 13 -4 0 -15 12 -25
28 -9 15 -29 41 -44 59 -15 17 -46 53 -68 79 -38 46 -159 177 -180 196 -164
143 -356 288 -384 288 -6 0 -11 5 -11 10 0 6 -4 10 -10 10 -5 0 -34 16 -65 35
-30 20 -55 33 -55 30 0 -3 -17 5 -37 18 -98 61 -417 182 -598 227 -27 6 -57
14 -65 17 -8 4 -24 8 -35 9 -11 2 -53 11 -94 20 -41 9 -84 17 -95 19 -12 2
-52 8 -91 14 -75 12 -108 17 -195 25 -30 3 -75 8 -100 10 -125 13 -254 19
-438 20 -112 1 -204 1 -205 0z m356 -1408 c102 -12 273 -73 321 -115 10 -9 19
-14 20 -11 1 6 80 -52 84 -62 2 -5 8 -8 13 -8 17 0 175 -166 211 -222 101
-154 177 -357 202 -538 3 -25 8 -54 10 -66 15 -76 20 -169 20 -389 1 -267 -5
-363 -29 -490 -9 -44 -17 -89 -19 -100 -14 -90 -64 -242 -110 -335 -50 -102
-101 -173 -188 -261 -91 -91 -159 -140 -274 -198 -67 -33 -100 -45 -179 -67
-134 -37 -345 -36 -475 2 -30 8 -61 16 -67 16 -7 1 -13 5 -13 10 0 5 -4 7 -9
4 -13 -9 -167 72 -236 122 -81 60 -193 175 -237 242 -58 88 -115 207 -146 305
-15 48 -18 59 -25 88 -2 6 -6 21 -10 32 -3 11 -8 31 -11 45 -2 14 -9 52 -15
85 -39 212 -47 660 -16 838 3 16 8 50 10 75 7 77 55 262 92 357 95 243 291
464 493 557 66 30 84 37 145 55 42 12 110 24 165 29 36 3 66 7 67 8 5 4 150
-2 206 -8z"/>
<path d="M30257 21873 c-1 0 -41 -4 -89 -7 -48 -3 -102 -8 -120 -11 -18 -3
-51 -7 -73 -10 -22 -2 -56 -7 -75 -11 -19 -3 -42 -7 -50 -8 -8 -1 -28 -6 -45
-10 -16 -4 -65 -16 -107 -27 -157 -39 -316 -100 -430 -166 -31 -18 -59 -33
-61 -33 -19 0 -307 -208 -307 -222 0 -4 -4 -8 -9 -8 -24 0 -266 -241 -390
-390 -11 -14 -34 -40 -49 -59 l-29 -34 0 449 0 449 -991 0 c-653 0 -993 -3
-995 -10 -2 -5 -3 -1247 -3 -2760 l1 -2750 1056 -3 1056 -2 0 1392 c1 766 4
1431 7 1478 8 109 19 211 31 270 3 14 8 41 11 60 17 95 64 252 79 262 5 4 7 8
3 8 -12 0 49 126 90 187 48 71 108 132 187 191 50 37 125 82 145 87 3 1 18 7
33 13 16 7 33 12 38 12 5 0 17 4 27 10 45 24 331 40 372 20 8 -5 31 -10 50
-13 228 -35 439 -250 495 -505 3 -12 7 -32 11 -44 10 -44 25 -154 30 -223 9
-138 9 -157 1 -162 -4 -2 -4 -9 -1 -15 9 -15 10 -178 1 -178 -4 0 -4 -7 1 -16
5 -9 6 -31 2 -49 -4 -18 -5 -37 -1 -43 8 -13 6 -147 -3 -161 -4 -6 -4 -11 1
-11 4 0 8 -27 8 -60 0 -33 -4 -60 -8 -60 -4 0 -3 -8 2 -19 6 -10 8 -21 5 -23
-5 -6 -5 -38 -1 -136 1 -34 -2 -62 -6 -62 -4 0 -3 -8 2 -19 6 -10 8 -20 6 -23
-6 -5 -6 -32 -3 -211 2 -81 -1 -147 -5 -147 -4 0 -3 -8 2 -19 6 -10 8 -21 5
-23 -5 -6 -5 -38 -1 -136 1 -34 -2 -62 -6 -62 -4 0 -4 -7 1 -16 5 -9 6 -31 2
-49 -4 -18 -5 -37 -1 -43 8 -13 6 -147 -3 -161 -4 -6 -4 -11 1 -11 4 0 8 -27
8 -60 0 -33 -4 -60 -8 -60 -4 0 -3 -8 2 -19 6 -10 8 -21 5 -23 -5 -6 -5 -38
-1 -136 1 -34 -2 -62 -6 -62 -4 0 -3 -8 2 -19 6 -10 8 -20 6 -23 -6 -5 -6 -32
-3 -211 2 -81 -1 -147 -5 -147 -4 0 -3 -8 2 -19 6 -10 8 -21 5 -23 -5 -6 -5
-38 -1 -136 1 -34 -2 -62 -6 -62 -4 0 -3 -8 2 -19 6 -10 8 -20 6 -23 -5 -5 -6
-40 -3 -141 2 -42 -1 -77 -6 -77 -5 0 -3 -7 4 -15 11 -13 138 -15 1063 -13
l1051 3 -1 1825 c0 1683 -2 1922 -18 2050 -3 25 -7 65 -10 90 -2 25 -6 56 -9
70 -3 14 -7 41 -10 60 -4 30 -15 85 -30 155 -11 51 -37 145 -54 195 -11 30
-20 57 -20 60 -1 5 -7 23 -42 110 -43 110 -141 279 -223 385 -106 137 -293
301 -410 361 -18 9 -34 20 -37 23 -11 15 -182 90 -275 121 -55 18 -107 35
-115 38 -8 3 -21 6 -29 8 -7 1 -34 7 -60 13 -25 6 -57 13 -71 15 -14 3 -25 5
-25 6 0 1 -11 3 -25 4 -14 2 -45 6 -70 9 -98 14 -181 20 -328 21 -85 0 -154 0
-155 -1z"/>
<path d="M23560 21770 c-4 -3 -7 -1240 -6 -2750 l1 -2745 1048 0 c712 -1 1051
3 1055 10 8 12 10 5484 2 5486 -17 4 -2093 3 -2100 -1z"/>
</g>
</svg>
