<svg version="1.0" xmlns="http://www.w3.org/2000/svg" width="5333.333" height="5333.333" viewBox="0 0 4000 4000"><path d="M1467.8 1600.5c-.2.2-4 .6-8.3.9-4.4.3-10.2.8-13 1.1-2.7.3-6.3.8-8 .9-3.2.4-11.3 1.7-13 2-.5.2-2.8.6-5 1-11.9 2.3-27.5 7.5-37 12.4-3.8 2-7.1 4-7.3 4.4-.2.5-.8.8-1.4.8-1.6 0-11.2 6.6-19.9 13.5-15.1 12.3-27.2 26.7-33.5 40.2-1.5 3.2-2.8 6-2.9 6.3 0 .3-.6 1.4-1.2 2.5-1.1 2-6.8 19.4-7.7 23.6-2.1 9.2-3.4 16.3-4.2 21.9-.3 2.5-1 4.8-1.5 5.1-.5.3-5.5-.5-11.2-1.8-14.1-3.2-17.8-4-21.7-4.8-3.2-.6-11.8-2.4-15-3.1-1.4-.3-3.6-.7-5-.9-1.4-.2-5.6-1-9.5-1.9-3.8-.8-8.6-1.7-10.5-2-1.9-.3-6-1-9-1.6-3-.6-6.6-1.3-8-1.6-5.9-1.1-19.7-3.6-21.5-4-1.1-.2-3.6-.6-5.5-.8-2-.2-4.7-.7-6-1-1.4-.3-4.1-.8-6-1.1-1.9-.2-4.6-.7-6-1-3.3-.6-10.8-1.7-14.5-2.1-1.6-.1-3-.3-3-.4 0-.2-1.4-.4-15.5-2.5-.8-.2-3.7-.6-6.5-.9-6.5-1-9.2-1.4-13.5-2.1-1.9-.4-5.3-.8-7.5-1-2.2-.1-5.6-.5-7.5-.9-1.9-.3-5.3-.8-7.5-1.1-2.2-.3-5.1-.7-6.5-.9-1.4-.2-5.4-.7-9-1.1-3.6-.4-7.4-.9-8.5-1.1-2.7-.5-11.1-1.5-16-1.9-2.2-.2-4-.4-4-.5 0-.1-1.3-.3-3-.5-1.6-.1-5.2-.5-8-.9-2.7-.4-6.6-.9-8.5-1.1-1.9-.3-6.2-.7-9.5-1.1-9.2-.9-12-1.2-12-1.4 0 0-2.5-.3-5.5-.6-2.9-.2-7.2-.7-9.5-1-2.2-.2-5.8-.6-8-.8-5.4-.5-14.1-1.5-19-2.2-2.2-.2-6-.7-8.5-.9-2.5-.2-7.2-.6-10.5-.9-9-.9-15.2-1.5-23.8-2.2-4.3-.3-9.7-.8-12-.9-32.2-2.7-59.1-4.2-105.7-6-60.7-2.4-163.6-1.9-231 1-6.3.3-16.7.7-23 1-6.3.2-15.3.6-20 .9-4.7.3-13.9.8-20.5 1.1-6.6.4-14.7.8-18 1.1-3.3.2-9.4.6-13.5.8-4.1.3-11.5.8-16.5 1.1-4.9.4-11.7.9-15 1.1-3.3.2-8.5.6-11.5.8-3 .3-9.5.7-14.5 1.1-4.9.3-10.1.8-11.5 1-1.4.2-6.8.7-12 1.1-5.2.4-11.1.8-13 1-1.9.1-6.6.5-10.5.8-3.8.3-9.2.8-12 1.1-6.5.7-13.8 1.4-20 2-2.7.3-7.2.7-10 1-2.7.4-7.2.8-10 1-2.7.2-5 .5-5 .5 0 .1-2.2.4-5 .5-2.7.2-6.8.6-9 .9-2.2.3-6.9.8-10.5 1.1-3.6.3-7.6.8-9 1-1.4.3-5.2.8-8.5 1.1-7.7.8-9.8 1-16.9 1.9-3.3.4-7.1.9-8.5 1-4.7.5-13.5 1.6-17.2 2.1-2 .2-5.4.6-7.5.9-5.2.5-11.1 1.3-15.4 2-1.9.3-5.5.7-8 1-2.5.3-5.8.7-7.5 1-1.6.2-4.8.7-7 .9-6.9.8-13.9 1.7-17 2.3-1.6.3-4.6.7-6.5.9-3.3.3-9 1.2-13.4 2-1 .2-3.7.6-6 .8-2.2.3-5.2.8-6.6 1.1-1.4.3-4.3.7-6.5 1-2.2.2-5.6.7-7.5 1-1.9.4-4.8.8-6.5 1-1.6.2-4.1.6-5.5.8-3.2.6-11.9 1.9-14.5 2.3-1.1.1-2.2.3-2.5.4-.3.1-.9.2-1.4.1-.5-.1-1.6.1-2.5.5-1.6.7-2.6.9-6.4 1.2-1 .1-1.6.5-1.4.9.3.5.8 4.8 1.2 9.8.4 4.9.8 10.6 1 12.5.2 1.9.4 3.9.4 4.3.1.5.4.6.8.4.5-.3 3.3-.8 6.3-1.1 3-.4 7.1-.9 9-1.1 3.3-.5 8-1 17.5-2 12-1.2 15.2-1.6 17.5-2 3-.4 16-1.7 21.5-2.1 2.2-.1 4-.3 4-.4 0-.1 1.4-.3 3-.4 16.2-1.5 20.4-1.8 23-2.2 1.7-.2 6.2-.6 10-.9 3.9-.3 9-.7 11.5-1 2.5-.2 7.9-.7 12-1 4.1-.4 9.1-.8 11-1 1.9-.2 7.2-.6 11.6-.9 4.5-.4 10.3-.8 13-1 2.7-.3 9.2-.7 14.4-1.1 5.2-.3 11.8-.8 14.5-1 18.4-1.4 33.7-2.5 45.9-3.1 5.5-.2 13.9-.7 18.6-.9 7.7-.5 16.4-.9 40.5-2 8.7-.4 39-1.4 63.5-2.1 21.3-.6 110.6-.6 132 0 35.6 1 67.6 2.6 86.5 4.1 2.8.2 10.2.7 16.5 1.1 10 .6 14.5 1 14.5 1.3 0 .1 3.8.4 8.5.6 4.7.3 10 .7 11.9.9 1.9.3 7.3.8 12 1.1 4.7.4 9.7.8 11.1 1.1 1.4.2 5.4.6 9 .9 3.6.3 8.1.8 10 1 1.9.3 6.4.7 10 1 3.6.3 7.6.8 9 1 1.4.3 5.2.8 8.5 1.1 7 .7 11 1.2 11 1.4 0 .1 4.7.7 12 1.4 2.2.3 5.6.7 7.5 1 1.9.3 7.1 1 11.4 1.7 4.4.6 9.3 1.3 11 1.6 1.7.2 4 .6 5.1.7 9 1.2 15.3 2.2 15.8 2.6.1.1 1.6.3 3.2.5 3.9.4 10.3 1.3 13.5 2 2.8.6 6.9 1.3 11.5 2 3.8.5 8.3 1.4 11.5 2.1 1.3.3 3.8.7 5.5 1 1.6.2 4.1.6 5.5.9 3 .7 11.3 2.3 15.5 3.1 4.3.7 5.6 1 9 1.7 3.2.8 6.4 1.4 10.8 2.2 1.5.3 6 1.3 10 2.1 3.9.9 7.9 1.7 8.7 1.9.8.1 3.3.7 5.5 1.2 2.2.6 6.7 1.6 10 2.3 3.3.7 7.4 1.6 9 2.1 1.7.5 4.4 1.1 6 1.4 1.7.2 4.5.9 6.3 1.4 1.8.5 3.3 1 3.5 1 .4-.1 6.5 1.4 20.2 4.8 7.7 1.9 15.1 3.7 16.4 3.9 1.4.3 2.8.7 3.2 1 .4.2 2.7.8 5.1 1.3 2.4.6 8.6 2.1 13.8 3.6 5.2 1.4 10.4 2.8 11.5 3 1.8.4 11.4 3 31 8.6 3.9 1.1 7.5 2.1 8 2.2.6.1 1.6.6 2.3 1 .6.5 1.2.6 1.2.3s1.8.1 4 .9 4.1 1.4 4.3 1.3c.2-.1 11 3 13.7 4 .8.3 2.1.6 2.8.8 2.8.5 23 6.7 28 8.5 2.9 1 5.6 1.8 6 1.7.4-.2 2.1.2 3.7.9 3.5 1.3 15.2 5.2 17.7 5.8 8.6 2 12.7 4 13.1 6.2.2 1.3.1 2.6-.4 2.8-.4.3-.4 1.8 0 3.3.4 1.5.5 3.8.1 5.2-.4 1.4-.3 3.5.1 4.7.5 1.5.5 2.3-.2 2.3-.6 0-.7.5-.4 1 .7 1.1.8 6.3.2 11.6-.2 1.8 0 4 .4 5 .3 1.1.3 2.9-.2 4.1-.5 1.5-.5 2.3.2 2.3.6 0 .6.6 0 1.8-.5 1-.6 2.4-.1 3.1.4.8.5 2.5.1 4-.7 2.8-.6 9 .3 9.8.2.3.1 1.6-.4 2.9-.6 1.6-.6 2.4.1 2.4.6 0 .6.6 0 1.8-.5 1-.6 2.4-.1 3.1.4.8.4 2.5 0 4-.4 1.4-.4 3.6.1 4.8.4 1.2.4 2.5-.1 2.8-.5.3-.5 1.8 0 3.4.4 1.6.6 3.1.4 3.3-.7.8-1 8.6-.3 10.4.3 1.1.3 2.9-.2 4.1-.5 1.5-.5 2.3.2 2.3.6 0 .6.6 0 1.8-.5 1-.6 2.4-.1 3.1.4.8.5 2.5.1 4-.7 2.8-.6 9 .3 9.8.2.3.1 1.6-.4 2.9-.6 1.6-.6 2.4.1 2.4.6 0 .7.6.1 1.6-1.1 2-.4 5.4 1.2 5.5.6.1 18.4.2 39.6.3l38.5.1v197c-.1 108.3.3 197.2.6 197.5.6.4 208.1.5 210 .1.3 0 .5-88.6.5-196.7-.1-130 .2-196.8.9-197.3.6-.4 21.2-.7 45.8-.7 36 .1 44.9.4 45.6 1.4.9 1.5 6.3 2.1 10.2 1.1 1.5-.4 3.2-.3 4 .1.7.5 2.1.4 3.1-.1 1.2-.6 1.8-.6 1.8 0 0 .7.8.7 2.4.1 1.3-.5 2.6-.6 2.9-.4.8.9 7 1 9.8.3 1.5-.4 3.2-.3 4 .1.7.5 2.1.4 3.1-.1 1.2-.6 1.8-.6 1.8 0 0 .7.8.7 2.4.1 1.3-.5 2.6-.6 2.9-.4.8.9 7 1 9.8.3 1.5-.4 3.2-.3 4 .1.7.5 2.1.4 3.1-.1 1-.6 1.8-.6 1.8-.1s1.8.6 4 .2c2.7-.5 4.3-.4 4.7.4.4.6.8 50.8.9 111.6.1 60.8.5 115.2.8 121 .6 12.1 1.5 23.9 2.1 29 .3 1.9.7 5.7 1 8.5.3 2.7.8 6.1 1 7.5.3 1.4.7 4.1 1.1 6 .5 3.2 2 11.2 2.8 15 1 4.9 3.6 13.4 5.6 18.5 4.1 10.1 6.6 15.5 7.2 15.5.5 0 .8.6.8 1.4 0 1.8 9.1 17 12.5 21 1.4 1.5 2.5 3.1 2.5 3.5 0 .6 10 10.7 15.8 16.1 8.2 7.6 18.9 13.3 38.7 20.6 1.1.4 2.7.9 3.5 1 .8.2 4.2 1 7.5 1.9 3.3 1 6.9 1.9 8 2.1 1.1.2 4.3.8 7 1.3 2.8.6 6.8 1.2 9 1.5 2.2.3 5.2.8 6.7 1.1 7.3 1.4 32.1 2.8 52.3 2.8 16.7.1 43.6-.9 48.5-1.8 1.4-.2 5.9-.6 10-.9 4.1-.3 8.6-.7 10-1 1.4-.2 4.5-.7 7-1 2.5-.3 6.5-.9 9-1.2 2.5-.4 5.6-.7 7-.9 1.4-.1 3.6-.5 5-.8 1.4-.4 4.1-.9 6-1.1 1.9-.2 3.5-.5 3.5-.6 0-.1 1.1-.4 2.5-.5 5.7-.8 13-2.3 22.5-4.5 2.8-.6 6.1-1.4 7.5-1.6 5.9-1.1 6.1-1.3 5.5-5.7-.3-2.3-.8-6.7-1-9.7-.3-3-.7-7.3-.9-9.5-.3-2.2-.8-6.9-1.1-10.5-1.1-11.5-1.8-18.1-3.1-29.5-.3-2.8-.7-6.8-.9-9-.2-2.2-.4-4-.5-4-.1 0-.3-2-.5-4.5-.5-6.3-2-22-3-31-.3-1.9-.6-5.8-.9-8.5-.2-2.8-.8-7.5-1.1-10.5-.4-3-.8-7.2-.9-9.2-.2-2.1-.5-4-.7-4.3-.3-.2-2.3.1-4.5.7-2.1.6-4.1 1.2-4.4 1.3-.3.1-2.3.5-4.5 1-2.2.4-4.4 1-5 1.4-.5.3-1.4.6-2 .7-3 .5-7.5 1.4-11 2.3-2.2.5-6 1.3-8.5 1.6-2.4.4-4.7.8-5.1 1.1-1.3.7-13.7 1.7-21.4 1.6-9.2-.1-17.5-2.6-23.2-6.9-5.1-3.8-7.2-6-6.6-6.7.4-.3.2-.6-.3-.6-2.5 0-7.1-11.7-8.1-20.5-.2-2.1-.7-4.4-1.1-5-1.2-1.8-1-215.5.2-215.6.6 0 7.9-.2 16.1-.4 24.1-.6 50.1-1.9 62-3 3.9-.3 9.3-.8 12-1 2.8-.3 7.5-.7 10.5-1.1 3-.3 6.7-.7 8.2-.8 1.5-.1 3-.5 3.5-.9.4-.5.8-35.5.8-77.8V1820l-8.5.5c-4.7.3-12.1.7-16.5 1-9.2.7-26.7 1.4-47.5 2-8 .2-14.5.5-14.5.5 0 .5-26.5.5-26.7.1 0-.4-.2-47.7-.3-105.3-.1-57.6-.4-105-.6-105.3-.5-.5-9 3.7-23 11.3-10.3 5.5-29.7 15.7-40.4 21.1-4.9 2.5-9.2 4.8-9.5 5.1-.5.5-2.6 1.6-23.5 12.5-6 3.2-14.6 7.7-19 10s-12.9 6.8-19 10c-6 3.2-14.1 7.5-18 9.5-3.8 2.1-11.5 6.1-17 9-5.5 2.9-10.6 5.7-11.2 6.2-.7.6-1.3.7-1.3.3 0-.5-.8-.2-1.7.6-1 .8-5.6 3.4-10.3 5.8-4.7 2.4-9.9 5.2-11.5 6.2l-3 1.8v95.3l-8-.8c-4.4-.3-10-.8-12.5-.9-2.5-.2-4.5-.4-4.5-.5 0-.1-1.1-.3-2.5-.5-4.3-.4-15.4-1.6-18-2-1.4-.2-4.3-.5-6.5-.8-2.2-.3-6.5-.9-9.5-1.3-3-.3-6.4-.8-7.5-1-1.1-.3-4.2-.7-7-1-2.7-.3-5.6-.7-6.4-1-.8-.2-3-.7-5-1-2-.3-8.8-1.5-15.1-2.6-6.3-1.1-12.6-2.2-14-2.4-1.4-.1-9.2-1.9-17.5-3.9-8.2-1.9-15.9-3.7-17-4-1.1-.2-3.6-.9-5.5-1.5-1.9-.5-4.8-1.3-6.5-1.6-3.1-.5-4.6-2-4-3.8.2-.6.7-2.9 1-5 1.6-10.9 6.5-25.8 10-30.4 4.5-5.9 13.8-13 17.9-13.6.6-.1 1.6-.4 2.1-.8 2.6-1.6 12.7-2.2 34.5-2.2 23.4.1 32.9.6 42.5 2.4 8.3 1.5 11.5 1.9 11.9 1.2.2-.4.7-2.4 1-4.4.3-2.1 1-5.7 1.5-8 .6-2.4 1.3-5.9 1.6-7.8.3-1.9.8-4.2 1-5 .2-.8.6-2.6.9-4 .2-1.4.9-5.2 1.5-8.5 1-5.5 1.3-7.1 2.5-12.4.2-1 .7-3.4 1-5.2.6-3.5.9-4.9 2.6-13.4 1.5-7.5 2-9.7 2.5-13 .6-3.2 1.2-6.4 2.1-10.5.8-3.7 1.3-6.7 1.9-9.7.2-1.5.9-4.9 1.4-7.7 3.7-18.2 3.6-17.6.9-17.5-1.3 0-4.1-.2-6.3-.5-3.6-.4-9.7-1-22-2.2-5.6-.6-12.2-1.3-17.5-1.9-2.5-.2-7.8-.7-11.7-.9-4-.3-7.6-.6-8-.9-.5-.2-2.6-.5-4.8-.6-2.2-.1-6-.4-8.5-.6-6-.6-14.5-1.3-25.5-2.1-4.9-.3-11.2-.8-14-1-7-.6-68.2-1.3-68.7-.9zm589.7 12.5c-.2.3-.3 170.7-.3 378.7l.1 378.2 29.8.3c16.4.2 30.8.1 32.1-.2 1.3-.4 4.2-.3 6.6 0 2.3.4 4.5.4 4.7 0 .2-.4 2.6-.4 5.2 0 2.7.3 6 .3 7.3 0 1.4-.3 4.1-.3 6 0 1.9.3 4.6.3 6 0 1.4-.3 4.1-.3 6 0 1.9.3 4.5.4 5.8.1 1.2-.3 6.7-.4 12.2-.1 5.5.3 11 .2 12.2-.1 1.3-.3 3.9-.2 5.8.1 1.9.3 4.6.3 6 0 1.4-.3 4.1-.3 6 0 1.9.3 4.6.3 6 0 1.4-.3 4.4-.3 6.8 0 2.3.4 4.5.4 4.7 0 .2-.3 2.5-.4 5.2-.1 2.6.4 11.4.5 19.4.3l14.6-.3.2-5.1c0-2.8.3-5.3.6-5.6.3-.3 0-1.1-.6-1.9-.9-1-.8-1.3 0-1.3.7 0 .9-.5.5-1.2-.8-1.3-.9-19.6-.1-20.4.3-.4.2-1.7-.3-3-.6-1.4-.6-2.6 0-2.9.5-.3.7-1.1.5-1.8-1-2.5-1.2-7.8-.4-8.3.4-.2.4-1.6-.1-2.9-.6-1.5-.6-2.7.1-3 .5-.4.6-1.1.3-1.7-.8-1.3-.8-22.8 0-23.6.3-.3.1-1.1-.5-1.9-.9-1-.8-1.3 0-1.3.7 0 .9-.5.5-1.2-.9-1.4-.8-18.8.1-19.6.3-.3 0-1.1-.6-1.9-.9-1-.8-1.3 0-1.3.7 0 .9-.5.5-1.2-.8-1.3-.8-34.7 0-35.6.3-.3.1-1.1-.5-1.9-.9-1-.8-1.3 0-1.3.7 0 .9-.5.5-1.2-.9-1.4-.8-18.8.1-19.6.3-.3 0-1.1-.6-1.9-.9-1-.8-1.3 0-1.3.7 0 .9-.5.5-1.2-.8-1.3-.8-34.7 0-35.6.3-.3.1-1.1-.5-1.9-.9-1-.8-1.3 0-1.3.7 0 .9-.5.5-1.2-.9-1.4-.8-18.8.1-19.6.3-.3 0-1.1-.6-1.9-.9-1-.8-1.3 0-1.3.7 0 .9-.5.5-1.2-.8-1.3-.8-34.7 0-35.6.3-.3.1-1.1-.5-1.9-.9-1-.8-1.3 0-1.3.7 0 .9-.5.5-1.2-.9-1.4-.8-18.8.1-19.6.3-.3 0-1.1-.6-1.9-.9-1-.8-1.3 0-1.3.7 0 .9-.5.5-1.1-.8-1.3-.8-42.9 0-43.7.3-.3.1-1.1-.5-1.9-.9-1-.8-1.3 0-1.3.7 0 .9-.5.5-1.1-.8-1.3-.8-26.9 0-27.7.3-.3.1-1.1-.5-1.9-.9-1-.8-1.3 0-1.3.7 0 .9-.5.4-1.3-1.1-1.8-1.2-3.6-.2-4.2.4-.3.4-1.6-.1-3-.6-1.5-.6-2.7 0-3 .5-.3.7-1.1.5-1.8-1-2.5-1.2-7.8-.4-8.3.4-.2.4-1.6-.1-2.9-.6-1.5-.6-2.7.1-3 .5-.4.6-1.1.3-1.7-.8-1.3-.8-22.8 0-23.6.3-.3.1-1.1-.5-1.9-.9-1-.8-1.3 0-1.3.7 0 .9-.5.5-1.2-.9-1.4-.8-18.8.1-19.6.3-.3 0-1.1-.6-1.9-.9-1-.8-1.3 0-1.3.7 0 .9-.5.5-1.2-.8-1.3-.9-19.6-.1-20.4.3-.4.2-1.7-.3-3-.6-1.4-.6-2.6 0-2.9.5-.3.7-1.1.5-1.8-1-2.5-1.2-7.8-.4-8.3.4-.2.4-1.6-.1-2.9-.6-1.5-.6-2.7.1-3 .5-.4.7-1.1.3-1.6-.7-1.2-.8-30.9 0-31.6.3-.4.1-1.2-.5-2-.9-1-.8-1.3 0-1.3.7 0 .9-.5.5-1.1-.8-1.3-.8-26.9 0-27.7.3-.3.1-1.1-.5-1.9-.9-1-.8-1.3 0-1.3.7 0 .9-.5.5-1.1-.8-1.3-.8-26.9 0-27.7.3-.3.1-1.1-.5-1.9-.9-1-.8-1.3 0-1.3.7 0 .9-.5.5-1.1-.8-1.3-.8-26.9 0-27.7.3-.3.1-1.1-.5-1.9-.9-1-.8-1.3 0-1.3.7 0 .9-.5.4-1.3-1.1-1.8-1.2-3.6-.2-4.2.4-.3.4-1.6-.1-3-.6-1.5-.6-2.7 0-3 .5-.3.7-1.1.5-1.8-1-2.5-1.2-7.8-.4-8.3.4-.2.4-1.6-.1-2.9-.6-1.5-.6-2.7.1-3 .5-.4.6-1.1.3-1.7-.8-1.3-.8-22.8 0-23.6.3-.3.1-1.1-.5-1.9-.9-1-.8-1.3 0-1.3.7 0 .9-.5.5-1.2-.9-1.4-.8-18.8.1-19.6.3-.3 0-1.1-.6-1.9-.9-1-.8-1.3 0-1.3.7 0 .9-.5.5-1.2-.8-1.3-.9-19.6-.1-20.4.3-.4.2-1.6-.3-2.8-.4-1.3-.4-2.9 0-3.6.5-.8.6-1.8.3-2.4-.4-.5-.6-2.8-.4-5l.2-4.1h-104.2c-57.2 0-104.2.2-104.4.5zm298.1 1c-.7 2.5-.4 143 .3 143.1.3.1 47.7.2 105.3.3 69.2.1 104.9-.2 105.1-.9.3-.9.1-138.9-.2-142.5-.1-1.3-12.3-1.5-105.1-1.5-92.5 0-105.1.2-105.4 1.5zm1539.9 14c-.2.3-1.9.7-3.7.8-1.9.1-4.5.5-5.8.8-1.4.3-2.9.6-3.5.7-.5.2-1.6.6-2.2 1-.7.5-1.3.6-1.3.3s-1.6.2-3.5 1-3.5 1.2-3.5.8c0-.3-1.2.3-2.7 1.3-1.6 1.1-4 2.4-5.5 3.1-8.4 3.6-23.9 16.3-30.5 25-1 1.3-2.8 3.6-4 5.2-1.3 1.5-2.3 3.3-2.3 3.8 0 .6-.6 1.7-1.4 2.5-2.5 2.5-9.4 19.9-11.7 29.3-2.2 9.2-2.9 25.5-1.4 33.9 1.1 6.7 1.2 6.9 1.7 8.5.3.8 1.3 4.2 2.3 7.5 6.7 21.7 26.6 44.3 48 54.4 8.7 4.1 13.6 5.7 27 8.7 3.1.7 22.5.7 27.7 0 2.5-.3 5.8-1 7.2-1.6 1.4-.5 2.6-.8 2.6-.5 0 1.7 22.4-8.3 29-12.9 22.2-15.5 35.7-36.4 40.5-62.6 2-11 1.3-32.2-1.4-39.2-.5-1.3-.9-2.5-.9-2.8-.1-3.8-8.7-23.9-11.2-26-.3-.3-1.3-1.6-2.1-3-4.3-6.7-11.7-14.2-23.2-23.6-5.4-4.4-21.9-11.7-32.2-14.3-8.8-2.1-31.1-3.6-32-2.1zm30.5 25c20.8 7 34.9 18.9 44.3 37.5 2.8 5.6 6 15.6 6.2 19.5 0 1.4.4 3 .6 3.5.3.6.5 5 .4 10-.2 7.5-.5 10.6-2 16.5-2.1 8.3-7.4 19.8-11.7 25.4-6.2 8-22.7 22-24.6 20.8-.2-.2-.8.1-1.2.7-.6 1.1-9.4 4.5-16 6.3-6.4 1.7-23 1.8-31 .2-8.3-1.7-23.9-8.8-28.2-12.8-1.6-1.4-2.8-2.3-2.8-2.2 0 .4-8.7-8.4-10.7-10.8-6.9-8.2-13.5-23.6-15-34.6-1.7-12.8.9-32.7 5-37.8.5-.6.7-1.2.3-1.2-1.7 0 8.4-15.6 14.1-21.5 5.8-6.2 20.3-16.3 24.3-17 .3 0 2.8-.9 5.6-1.8 8.3-2.8 13.3-3.5 24.9-3.2 8 .3 12.7.9 17.5 2.5z"/><path d="M3871 1676.2c-.2 6.5 0 93.2.3 93.4.2.3 17.3.6 22.3.5 1.9-.1 2.1-.7 2.2-10.9.1-5.9.2-11.4.2-12.2 0-.8-.1-4-.3-7-.2-3 0-6 .5-6.7 1.8-2.3 12.8.4 15.5 3.9 1.3 1.7 6.6 14.9 6.6 16.5 0 .7.4 1.3.8 1.3.3 0 1 1 1.4 2.2.4 1.3.8 2.5 1 2.8.1.3.5 1.4 1 2.5 2.6 6.9 3.1 7.6 4.6 7.2.9-.3 2.4 0 3.3.5 1 .6 1.6.5 1.6-.2 0-.8.6-.8 2 0s2 .8 2 0 .6-.8 2 0 2 .8 2 0c0-.6.5-.8 1.2-.4 1.2.7 7.8.7 8.6 0 .3-.4-3.8-11.4-6.9-18.3-1-2.4-1.9-4.5-1.9-4.7 0-.3-.5-1.7-1.1-3.3-.6-1.5-.9-2.8-.7-2.9.2 0-.2-.7-.8-1.5-.6-.8-1.6-3-2.3-4.9-1.1-3.5-3.2-6.1-8-10-2.4-2-2.4-2-.3-2 1.2 0 2.2-.4 2.2-.9s1.1-1.2 2.5-1.5c3.1-.8 7.3-4.8 10.5-10 1.8-2.9 2.3-5.2 2.2-9.6-.1-11.3-7.2-19.7-19.5-23.4-6.5-1.9-54.7-2.3-54.7-.4zm45.7 18.2c5.1 2.6 6.6 5.1 6 9.7-.3 2.2-1.5 5.2-2.8 6.5-2.7 2.9-10.4 4.7-18.4 4.2-5.6-.3-5.9-.4-5.9-2.8 0-1.4.3-3.1.8-3.8.4-.6.4-1.2-.1-1.2-.6 0-1-14.1-.4-14.6.1 0 4.1.1 9.1.2 5.3.2 10.1.9 11.7 1.8zm-359.3 113.5c-.2.2-3.4.5-7.1.7-10.4.4-22.9 1.7-30.8 2.9-1.6.3-4.6.8-6.5 1-6.7.9-14.1 2.2-17 3-.8.2-3.1.7-5 1-1.9.3-5.3 1.1-7.5 1.7-2.2.6-4.6 1.3-5.4 1.4-1.2.2-4.5 1.1-7.1 1.9-.3.1-2.5.7-5 1.4-8 2.3-19.5 6.3-20.4 7.2-.6.5-1.6.9-2.4.9-.7 0-3.9 1.2-7 2.6-11.3 5.1-18.7 8.6-20.2 9.4-.8.5-3.1 1.7-5 2.7-4.6 2.3-18.1 10.7-25.2 15.8-3.1 2.2-6.6 4.7-7.8 5.5-4.8 3.3-8.5 6.5-18.9 15.8-11.5 10.4-19.1 18.6-28.9 31.2-3.7 4.7-6.9 8.7-7.2 9-.5.5-7.1 10.4-11.6 17.5-2.9 4.6-12.8 23.7-12.7 24.5 0 .3-.6 1.4-1.3 2.5-.8 1.1-1.4 2.7-1.4 3.6 0 .9-.7 2.2-1.5 2.9-.9.7-1.4 1.5-1.1 1.7.2.2-.7 3.2-2.1 6.6-2.6 6.7-7.5 21.3-7.9 23.7-.1.8-.9 4-1.7 7-1.3 4.8-2.1 8.2-4.2 19-.5 2.3-.9 4.7-2 12.5-.5 3-1.1 8.1-2 16.5-.7 6.1-1.7 24.8-1.5 28.5.5 10.6.4 13.5-.3 13.5-.5 0-.5.5-.1 1.1.4.6.8 4.4.9 8.3.4 9.1 1.4 22.9 2 28.1.7 5.4 1.6 11.6 2.1 14 .1 1.1.5 3.3.8 5 .3 1.6 1 5.2 1.6 8 .5 2.7 1.3 6.1 1.6 7.5.3 1.4 1.2 4.7 2 7.5.8 2.7 1.5 5.2 1.5 5.5.7 2.9 3.2 11.6 3.9 13.5 1.2 3 2.3 5.9 2.5 6.7.2.5.4 1 .5 1.3.1.3.3.8.4 1.2.1.5.9 2.4 1.8 4.3.8 1.9 2.1 5.2 2.8 7.3.8 2 1.8 3.7 2.3 3.7.4 0 .5.5.2 1-.4.6-.2 1.6.3 2.3.6.7 3.1 5.2 5.6 10 5.1 9.7 5.4 10.3 13.5 22.7 4.7 7.2 15.3 21.9 18.6 25.6 21.5 24.6 37.5 38.6 60.5 53.1 5.5 3.4 20.3 11.4 22 11.8.3.1 1.9.7 3.5 1.4 10.5 4.5 26.3 9.6 42 13.6 4.4 1.2 19.5 4.3 23.8 5 1.9.3 11.6 1.8 19.7 3 1.4.3 5.4.7 9 1 3.6.4 8.1.8 10 1 9.8.9 40.4 2.7 45.5 2.5.6 0 4-.1 7.8-.2 3.8-.2 6.9.1 7.1.7.3.5.5.5.5-.2.1-.8 1-.9 3-.3 1.6.4 3.2.6 3.4.3.3-.2 7.5-.6 16-.8 8.5-.2 18.1-.6 21.3-.9 3.3-.3 9.3-.8 13.4-1.2 7.1-.5 11.6-1 18.5-1.8 11.1-1.3 14.2-1.7 15.5-2.1.8-.2 3.8-.7 6.5-1 4.1-.5 28-5.4 33.5-6.9.8-.2 3.3-.9 5.5-1.4 15.1-3.8 46.2-15.2 47.7-17.6.4-.6.8-.8.8-.3 0 .4 1.8-.4 4-1.8s4.3-2.5 4.8-2.5c.4 0 1.7-.7 2.7-1.5 3.5-2.7 12.6-8.5 13.5-8.5.4 0 1-.7 1.4-1.5.3-.8 1.1-1.5 1.8-1.5s2.4-1 3.8-2.3c1.4-1.2 5.6-4.7 9.4-7.7 3.9-3 7.9-6.4 9.1-7.5 1.2-1.1 4.6-4.3 7.6-7.1 9.6-9.1 19.1-19.6 28.8-31.9 3.4-4.4 6.8-8.7 7.5-9.6 2.2-2.7 16.6-24 16.6-24.5 0-.3 1.4-2.5 3-4.9 3.8-5.5 3.8-6.5-.2-6.6-1.8-.1-4.9-.3-6.8-.4-1.9-.2-6.2-.6-9.5-.9-3.3-.3-8-.8-10.5-1.1-7.3-.9-12.4-1.4-20.7-2-4.3-.3-9.1-.8-10.8-1-1.6-.3-5.9-.8-9.5-1-3.6-.3-8.3-.7-10.5-1-2.2-.2-6.7-.7-10-1-5.4-.5-9.9-.9-19.1-1.9-1.7-.2-3.6-.6-4.3-1-.6-.4-1.1-.2-1.1.4 0 .6-.5.8-1 .5-.6-.3-3.4-.8-6.3-1-5.8-.5-15.1-1.4-21.2-2.1-2.2-.3-6.9-.7-10.5-.9-3.6-.3-7.4-.6-8.5-.9-1.1-.2-5.6-.7-10-1.1-4.4-.4-10-.9-12.5-1.1-2.5-.3-6.7-.6-9.5-.9-2.7-.2-6-.6-7.2-.9-2.1-.4-5.3 1.5-5.3 3.2 0 .4-1.5 2.3-3.3 4.3-1.7 2-4.6 5.1-6.2 7-2.5 2.9-14 12.9-18 15.7-10 7-27 14.5-38 16.6-1.6.4-4.1.9-5.5 1.1-18.9 3.7-44.8 1.5-60-5.2-7.5-3.2-12.5-5.8-12.8-6.6-.2-.4-.8-.7-1.4-.7-.6 0-2.6-1.1-4.4-2.5-1.8-1.4-3.6-2.5-3.9-2.5-.4 0-1.2-.6-1.9-1.3-.7-.6-3.2-2.8-5.6-4.7-10.5-8.5-16.6-16.3-22.4-28.4-2.1-4.3-3.9-8.4-4.1-9-.1-.6-.7-2.2-1.2-3.6-.6-1.4-.9-2.8-.6-3.3.2-.4-.1-.7-.6-.7-.6 0-1-.3-.9-.8.2-.7-1.8-9.1-2.9-12.2-.4-.8-.8-2.4-1-3.5-.2-1.1-.8-4.3-1.3-7-1.6-8.1-2.3-13.3-2.1-15 .1-.7 70.2-1 208.4-1h208.2v-10.8c0-7.8.4-11 1.3-11.6 1.1-.6 1.2-4.7.8-19.7-.4-10.4-.8-20.7-1-22.9-.3-2.2-.7-7.2-1.1-11-1.3-13.5-3.1-28-4.1-33-.3-1.1-.7-3.4-.9-5-.3-1.7-.7-4.1-1-5.5-.4-1.4-.9-3.9-1.1-5.5-.9-4.9-6.3-26.2-8-31.2-.9-2.5-1.7-5.3-1.9-6.2-.2-.9-.9-3-1.6-4.6-.7-1.7-1.3-3.3-1.4-3.8-.2-.4-.4-.9-.5-1.2-.1-.3-.3-.8-.4-1.3-.4-1.8-4.9-12.9-7.1-17.6-1.3-2.8-2.9-6.2-3.5-7.6-.6-1.4-2.1-4.1-3.3-6.1-1.2-2-3.9-6.6-6-10.2-2.1-3.6-4.4-7.1-5.2-7.7-.8-.7-1.5-1.9-1.5-2.6 0-.8-.4-1.4-.9-1.4s-1.2-.8-1.5-1.8c-.3-.9-1.6-2.8-2.8-4.2-1.3-1.4-4.5-5.5-7.3-9-8.2-10.7-20.1-23.2-30.5-32-3.6-3-6.7-5.7-7-6-1.3-1.4-15.2-11.2-22-15.5-11.1-7.2-30.5-17.5-32.7-17.5-.7 0-1.3-.5-1.3-1.2 0-.6-.3-.9-.6-.5-.4.3-2-.1-3.6-.9-2.9-1.5-15.7-6.1-19.1-6.9-.9-.2-2.2-.7-2.7-1-.5-.3-1.8-.8-2.7-1-1-.2-7.2-1.7-13.8-3.4-6.6-1.6-13.3-3.2-15-3.5-1.6-.3-4.1-.7-5.5-1-1.4-.3-4.1-.7-6-1-1.9-.3-4.6-.8-6-1-9.1-1.7-34.4-4.1-53.5-5.2-12.2-.6-60.5-1.1-61.1-.5zm18.7 128.1c3.8-1.1 30.5-.5 34.7.8 1.7.6 3.2.9 3.2.7 0-.2 1.8.2 4 1s4.1 1.4 4.3 1.3c.1-.1 2.5.7 5.2 1.7 14.1 5.3 29 16.3 38.2 28.2 4.2 5.4 11.4 19.1 14.2 27.3 1.3 3.6 2.6 7.2 2.9 8 .3.8.6 1.9.7 2.5 0 .5.4 1.7.7 2.5.6 1.4 2.4 9.1 3.3 13.6.2 1.1.4 1.9.5 1.9.1 0 .3.9.5 2 .3 1.8.7 4.2 2.1 14.5.3 1.9.7 4.5.9 5.7l.4 2.3h-206.1l.6-6.9c.4-3.7.9-7.9 1.1-9.2.3-1.3.8-3.8 1.1-5.4.8-4.5 2.5-11.8 3.2-13.5.7-2 .7-2.1 1.7-5.5.5-1.7 1.4-4.5 2.2-6.2.7-1.8 1.3-3.4 1.2-3.5-.5-1.8 14.2-26.8 16.3-27.6.4-.2.8-.8.8-1.4 0-.5 3.3-4.2 7.3-8.2 10.1-10.1 26.1-20.3 34.7-22.1 1.9-.4 4-1.1 4.6-1.7.7-.5 1.6-.8 2-.7.5.1 1.1 0 1.4-.1.3-.1 1.9-.4 3.5-.6 1.7-.3 3.4-1 4-1.5.6-.6 1.1-.6 1.3 0 .2.5 1.5.6 3.3.1zM265.7 1812.6c-.1.1-6 .5-13.2.8-7.1.4-15.5.9-18.5 1.2-3 .3-7.7.7-10.5.9-9.3.9-19.9 2.2-27.5 3.5-3 .5-7.1 1.2-9 1.5-8.2 1.4-27 5.7-33.5 7.7-3.8 1.2-7.6 2.1-8.2 2.1-.7 0-1.3.3-1.3.7 0 .3-.9.6-2 .7-1 .1-3.4.8-5.2 1.7-1.8.8-5.5 2.4-8.3 3.6-7.8 3.3-12 5.4-12.3 6.2-.2.5-1.2.8-2.2.8-1 0-2 .3-2.2.7-.3.8-5 3.6-10.5 6.2-1.8.8-3.3 1.9-3.3 2.3 0 .4-.7.8-1.5.8s-1.5.4-1.5 1c0 .5-.5 1-1 1-.6 0-3.5 1.8-6.5 4s-5.7 4-6 4c-.3 0-1.3.8-2.3 1.7-1.1 1-4.8 4.3-8.3 7.5-8.5 7.5-9.7 8.7-14.6 14.4-2.3 2.7-5.3 6.2-6.8 7.9-3.7 4.3-12.5 17.2-12.5 18.3 0 .5-.8 2-1.8 3.3-1.1 1.3-3.3 6-4.9 10.4-1.7 4.4-3.4 8.9-3.8 10-1 2.4-1.1 3.1-2 7.4-.3 1.9-.8 3.8-1.1 4.3-.3.4-.7 2.2-.9 4-.3 1.8-.8 6-1.3 9.4-.4 3.4-.8 8.2-.7 10.8 0 2.5-.2 4.6-.5 4.6s-.5 1.6-.5 3.5.3 3.5.6 3.5.3 2-.1 4.5-.5 4.7-.2 5c.3.3.7 2.2.9 4.3.7 8.3 2.6 19.8 3.6 20.9.5.7.7 1.3.4 1.3-.3 0-.1 1.5.4 3.2.6 1.8 1.2 4 1.4 4.9 1.4 6.4 9.9 24.1 16 33.5 3.7 5.6 5.4 7.8 11.9 15.5 6.8 8.1 19.4 20.5 26.2 25.7 7.4 5.7 13.8 10.2 14.5 10.2.4 0 1.4.6 2.1 1.4 2 1.9 21 11 28.7 13.5 10.5 3.6 30 9.2 40.2 11.5.8.3 7.1 1.8 14 3.5 6.8 1.6 13.8 3.2 15.4 3.5 1.7.3 6.2 1.3 10 2.1 8.3 1.9 9.8 2.2 14.9 2.9 2.1.4 4.1.8 4.5 1 .3.3 2.5.7 4.7 1 3.8.6 5.5.9 10.7 2.1 1.2.3 6.3 1.2 11.2 2.1 10.9 1.9 12.4 2.2 15 2.7 1.1.3 4 .8 6.5 1.2 2.5.4 7 1.3 10 2.1 3 .7 7.1 1.6 9 1.9 1.9.3 4.9 1 6.6 1.6 1.7.5 4.4 1.2 6 1.4 5 .7 11.1 2.2 40.9 9.9 5.7 1.5 13.2 4 14.3 4.8.6.6 1.2.7 1.2.3 0-.4.6-.2 1.3.4.8.6 1.6.9 1.9.6.3-.3 1.1.1 1.8 1 .7.8 1.8 1.5 2.4 1.5 1.5 0 9.3 6.6 12.3 10.3 2.5 3.1 5.2 9.5 6.1 14.3 2.5 13.9-1.4 25.1-12.3 35.8-3.7 3.6-7.1 6.6-7.6 6.6-.4 0-2.5 2.6-4.6 5.7-2.1 3.2-4.4 6.5-5.2 7.2-2 2.2-11.4 5.2-12.2 3.9-.4-.6-.9-.6-1.2-.1-.8 1.3-25.1.4-32.7-1.2-1.4-.3-4.1-.7-6-.9-1.9-.2-7.3-1.1-12-2.1-10.6-2-10.9-2.1-18.7-3.9-6.6-1.5-15.6-4.3-21.8-6.7-1.6-.7-3.3-1.3-3.6-1.3-1.5-.2-10.9-6.8-10.9-7.7 0-.5-.7-.9-1.5-.9s-1.5-.3-1.5-.8c0-.4-2.3-3-5-5.9-2.8-2.9-5-5.4-5-5.7 0-.3-1.3-2.4-2.9-4.8-3.7-5.5-11.3-21.8-12.6-27-.7-2.7-.9-2.8-5.9-2.3-2.8.3-7.6.8-10.6 1-6.1.5-12 1.1-19.5 1.9-8 .9-16.6 1.7-22 2.1-10.7.9-16.2 1.4-21 2-2.7.4-7.2.8-10 1-2.7.2-5 .4-5 .5 0 0-2.7.3-6 .5s-8 .6-10.5 1c-2.5.3-6.7.7-9.5 1-5.2.4-17.2 1.6-21.5 2-8.9.9-19.1 1.9-22.5 2.1-2.2.1-4 .3-4 .4 0 .1-2 .3-4.5.5-2.5.1-7 .5-10 .9-3 .3-8.4.9-12 1.2-8.4.8-13.3 1.2-14.3 1.3-.5.1-.6 1-.2 2 .3 1.1.8 2.9 1 4 1.1 4.7 1.4 5.7 2.5 8.6.7 1.6 1.3 3.7 1.4 4.5.3 1.9 1.5 5 6.6 17.5 4.5 10.8 11.1 23.2 17.8 33.5 3.1 4.7 5.8 8.7 6.1 9 .3.3 2.2 2.5 4.1 5 6.6 8.7 20.2 22.7 28.1 29.1 2.2 1.9 5.7 4.7 7.6 6.4 7.1 6.1 26.8 16.1 42.8 21.8 10.2 3.6 29.5 9.3 35 10.3 1.7.3 5.9 1.2 9.4 2 3.6.8 7.9 1.7 9.5 1.9 1.7.2 4.2.7 5.6.9 1.4.3 4.3.7 6.5 1.1 2.2.3 5.4.7 7 1 3.4.5 11.3 1.5 16.5 2.1 1.9.2 5.1.6 7 .8 5.6.7 23.9 1.9 30.7 2 3.5.1 6.3.4 6.3.7 0 .8 75.7.5 76.5-.3.4-.4 1.8-.3 3.1.2s2.4.6 2.4.2c0-.4 1.7-.8 3.8-.8 4.6-.2 19.9-1.4 23.2-1.9 1.4-.2 5-.6 8-1 8.7-1 32.8-5.1 36.2-6.1 1-.3 3-.7 4.5-1 3.3-.6 20.8-5.1 24.3-6.3 1.4-.5 3.4-1.2 4.5-1.7 1.1-.4 2.8-.9 3.8-1.1 1-.1 3.1-1 4.7-1.8s3.4-1.5 3.9-1.5c1.9 0 21.5-9.3 31.5-15 5.8-3.2 19.5-12.3 24.1-15.9 2.2-1.7 5.3-4.2 6.9-5.4 5-3.8 20.9-20.1 25.1-25.5 2.1-2.9 4.3-5.2 4.7-5.2.4 0 .8-.4.8-1 0-.5 1.5-3.1 3.4-5.7 4.3-6.1 15.3-27.9 15.3-30.3 0-.3.6-1.6 1.3-3 .8-1.4 1.5-3 1.6-3.5.2-.6 1.2-3.5 2.3-6.6 1.1-3.1 2.2-6.7 2.5-8 .3-1.3 1.2-5.1 2-8.5 1.5-6 2.1-10.2 3.2-19.9.8-7 1.1-24.5.4-24.5-.3 0-.5-2.4-.6-5.3-.1-5.4-.8-10.4-2.9-19.5-.3-1.2-.7-3.2-1-4.3-.5-2.5-2.4-8.7-3.2-10.9-.4-.8-.7-1.7-.8-2-.1-.3-.7-1.8-1.3-3.3-.7-1.6-1.2-3.3-1.2-3.8s-.7-2.1-1.6-3.4c-.9-1.4-1.2-2.5-.8-2.5.5 0 .5-.4-.1-.8-.5-.4-2.5-3.6-4.4-7.2-4-7.6-9.8-16.5-15.5-23.5-5.2-6.5-18.9-20.1-24.6-24.5-2.5-1.9-4.7-3.7-5-4-.3-.3-2.3-1.7-4.5-3.1-18.9-12.5-34.5-19.9-54-26-3.8-1.1-7.7-2.4-8.5-2.7-.8-.3-2.4-.7-3.5-.9-1.1-.2-2.7-.6-3.5-1-.8-.3-1.7-.7-2-.8-4.2-1-11.1-2.7-12.1-2.8-.8-.2-2-.6-2.6-1-.7-.5-1.3-.6-1.3-.4 0 .3-1.7.1-3.7-.5-10.3-2.6-29.9-6.5-36.8-7.4-2.2-.2-4.7-.7-5.5-1-.8-.3-3.3-.7-5.5-1-2.2-.3-6.2-.9-9-1.5-2.7-.5-6.8-1.1-9-1.4-9.3-1-13.2-1.5-16.5-2.1-1.9-.3-6-.8-9-1-3-.2-6.7-.6-8.2-1-1.5-.3-4.1-.7-5.8-.9-1.8-.3-3.9-.7-4.9-.9-.9-.3-3.6-.8-6.1-1.1-2.5-.2-5.6-.7-7-1-1.4-.3-3.8-.7-5.5-1-1.6-.3-5.2-1-8-1.5-2.7-.5-6.6-1.2-8.5-1.4-3.3-.5-8.2-1.5-10.5-2-.5-.2-2.8-.6-5-1s-5.3-1.2-7-1.7c-11.6-3.3-17.4-5.4-19.7-7-1.4-1.1-3-1.9-3.5-1.9-1.9 0-12.1-10.6-14.2-14.7-4.6-9.2-4.2-21.6 1.1-31.8 4.8-9.3 13.6-15.3 28.3-19.5 4.4-1.2 8.7-2.4 9.5-2.7 2.3-.8 11.7-1.6 19.2-1.7 3.8-.1 6.8-.5 6.8-.9 0-.5.4-.5 1-.2.5.3 3.8.8 7.2 1 3.5.3 7.4.7 8.8 1 10.6 2.1 9.9 1.9 13.3 3.3 1.6.7 3.4 1.2 4.1 1.2.6 0 1.7.5 2.4 1.2s1.2.9 1.2.5c0-1.1 20.3 9.5 22.1 11.5.9 1 2.1 1.8 2.8 1.8.6 0 1.1.4 1.1.8 0 .5 1.8 2.8 4 5.3 4.1 4.4 12.3 19.9 13.6 25.4.8 3.4 2.3 5.7 3.4 5 .4-.2 3.8-.7 7.6-1 3.8-.3 8.7-.7 10.9-1 2.2-.3 6.7-.7 10-1 3.3-.3 7.8-.8 10-1 2.2-.3 6.3-.7 9-1 2.8-.2 8.2-.7 12-1.1 3.9-.4 8.7-.8 10.7-.8 2.1-.1 3.8-.3 3.8-.6s1.2-.5 2.8-.6c2.4-.1 8.6-.7 20.7-1.9 2.2-.3 6.7-.7 10-.9 3.3-.3 8-.8 10.5-1.1 7.2-.8 16-1.7 30.5-3 2.2-.2 4-.4 4-.5 0-.2 5.2-.7 16-1.4 4.4-.3 8-.6 8-.7 0-.2 4.5-.9 9-1.3 2.8-.3 5.2-.5 5.5-.6.3-.1 1.5-.1 2.8 0 4 .3 3.2-2-8.8-26-3.1-6.3-6.7-13.1-7.8-15-1.2-1.9-2.5-4.2-2.9-5-1.1-2.6-12.4-19.2-17.2-25.5-9.6-12.6-26.9-28.1-41.9-37.6-10.3-6.6-32.1-17.1-38.2-18.4-.8-.2-2.8-.9-4.5-1.5-1.6-.7-4.1-1.4-5.5-1.7-1.3-.2-3-.9-3.7-1.5-.7-.6-1.3-.8-1.3-.5 0 .3-1.5.1-3.2-.5-4.1-1.2-21-4.8-25.8-5.4-1.9-.2-4.6-.6-6-.9-1.4-.3-4.3-.7-6.5-.9-2.2-.3-6.7-.8-10-1.1-13.6-1.5-20.5-2-42.5-3.1-11.4-.5-63.9-1.2-64.3-.8zm631 0c-.1.1-5.5.5-12 .8-6.5.3-13.4.8-15.5 1.1-2 .3-5.3.7-7.2.8-1.9.2-4 .6-4.6.9-.5.4-1.9.6-2.9.4-1.1-.2-5 .3-8.8 1-3.7.7-8.5 1.6-10.7 1.9-2.1.3-9.2 1.9-15.7 3.6-6.5 1.6-12.7 3.1-13.8 3.4-3.4.8-20.9 6.5-23 7.5-1.1.5-4.5 1.9-7.5 3.1-3 1.1-6.6 2.6-8 3.2-1.4.6-2.8 1.1-3.2 1.1-.3.1-.9.4-1.3.8s-5 2.8-10.4 5.4c-5.3 2.6-9.8 5-10.1 5.3-.3.4-1.8 1.3-3.5 2.2-3.3 1.6-20.7 12.8-21.5 13.8-.3.3-2.7 2.2-5.5 4.1-2.7 1.9-5.7 4.1-6.6 5-.9.8-4.1 3.5-7 6-7.5 6.2-29.9 28.9-34.5 35-2.1 2.7-4.2 5-4.6 5-.4 0-.8.6-.8 1.4 0 .8-.4 1.6-.9 1.8-2.8 1-27.1 39.9-27.1 43.4 0 .8-.4 1.4-1 1.4-.5 0-1 .9-1 2s-.5 2-1 2c-.6 0-.9.3-.8.7.1.5-.6 2.5-1.5 4.7-.9 2.1-1.7 4-1.7 4.1 0 .1-.8 2-1.7 4.1-.9 2.2-1.7 4.1-1.8 4.4-.1.3-.5 1.2-.8 2-.8 1.9-6 18.2-6.3 19.5-.1.5-.7 3-1.4 5.5-1.5 5.7-2.5 9.9-3.4 15-.4 2.4-1.1 6.2-2 10.5-.2 1.1-.7 4.5-1.1 7.5-.4 3-.9 6.2-1 7.1-2.5 13.2-2.4 66.6.1 79.2.2 1.2.7 4.2 1 6.7.3 2.5.7 5.2.9 6 .2.8.7 2.8 1 4.5 3.5 20 12.5 47.3 22 66.5 7.4 15.2 22.5 39.5 29.9 48.5 15.5 18.8 19.8 23.5 31 34.4 9.8 9.5 9 8.8 15.8 14.1 9.9 7.9 12 9.5 13.2 9.9.6.2 1.3.7 1.6 1 3.5 4.3 39.3 23.3 54.5 29 3.3 1.3 6.9 2.7 8 3.2 2.5 1 17.5 6 19.5 6.4.8.2 3.5.9 6 1.6 2.5.7 4.7 1.3 5 1.4.3 0 2.3.5 4.5 1 2.2.4 4.5.9 5 1.1 4.2 1.2 21.9 4.4 26.5 4.9 1.9.2 5.1.6 7 .9 1.9.3 5.9.7 8.7.9 2.9.1 5.3.4 5.3.7 0 .3 3.2.5 7.1.5 3.9 0 7.3.3 7.4.6.6.8 56.7.8 59-.1 1.1-.4 3-.4 4.3.1 1.2.5 2.2.5 2.2.1s1.5-.8 3.3-.8c3.3-.1 14.9-1.2 20.2-1.9 1.7-.3 4.8-.7 7-1 2.2-.3 7.6-1.2 12-2s9.1-1.6 10.5-1.9c1.4-.2 4.3-.9 6.5-1.4 2.2-.6 5.1-1.3 6.5-1.6 7.7-1.5 34.7-10 44.5-14.1 13.5-5.6 31-14.5 44.5-22.8 3.8-2.3 21.2-14.7 22-15.6.3-.3 2.8-2.4 5.5-4.6 5.4-4.2 21.7-20.4 27.5-27.2 26.6-31.1 45.6-64.8 56.7-100.8 1.3-4.4 2.6-8.7 2.8-9.5l2-8c.9-3.6 1.7-7.4 1.9-8.5.2-1.1.9-4.9 1.6-8.5.7-3.6 1.4-8.1 1.5-10 .2-1.9.4-3.5.5-3.5.2 0 .4-1.6 1.6-14.5 1.5-15.3.8-59-1-68.6-.2-1.2-.7-4.5-1.1-7.5-.3-3-.8-6.1-1-6.9-.3-.8-.7-3.1-.9-5-.3-1.9-.8-4.6-1.1-6-.4-1.4-.7-3.2-.7-4 0-.8-.5-2.1-1.1-2.8-.5-.6-.7-1.2-.4-1.2.3 0 .1-1.7-.5-3.8-.5-2-1.1-5-1.3-6.5-.3-1.6-.8-3.4-1.2-4-.4-.7-.8-1.5-.9-2-.1-.4-.3-1-.4-1.5-.1-.4-.3-1.2-.4-1.7-.1-.6-.5-1.7-.8-2.5-.3-.8-2.5-6.7-4.8-13-4.6-12.5-12.9-30.1-18.5-39.4-1.9-3.2-3.5-6.2-3.5-6.7s-.4-.9-1-.9c-.5 0-1-.5-1-1 0-1.2-4.1-7.3-5.2-7.8-.5-.2-.8-.9-.8-1.6 0-.7-.9-2.1-2-3.1s-2-2.4-2-3.2c0-.7-.4-1.3-.8-1.3s-1.5-1.2-2.5-2.8c-.9-1.5-2.9-4.1-4.4-5.9-1.5-1.7-4.6-5.3-6.8-7.9-3.8-4.6-15.9-17.7-18-19.6-16.4-14.3-35.6-28.8-38.4-28.8-.6 0-1.1-.5-1.1-1 0-.6-.4-1-1-1-.5 0-3.4-1.6-6.5-3.5-3-2-5.5-3.3-5.5-3 0 .3-1.7-.5-3.7-1.8-9.8-6.1-41.7-18.2-59.8-22.7-2.7-.6-5.7-1.4-6.5-1.7-.8-.4-2.4-.8-3.5-.9-1.1-.2-5.3-1.1-9.4-2-4.1-.9-8.4-1.7-9.5-1.9-1.2-.2-5.2-.8-9.1-1.4-7.5-1.2-10.8-1.7-19.5-2.5-3-.3-7.5-.8-10-1-12.5-1.3-25.4-1.9-43.8-2-11.2-.1-20.4-.1-20.5 0zm35.6 140.8c10.2 1.2 27.3 7.3 32.1 11.5 1 .9 1.9 1.4 2 1.1.1-.6 8 5.2 8.4 6.2.2.5.8.8 1.3.8 1.7 0 17.5 16.6 21.1 22.2 10.1 15.4 17.7 35.7 20.2 53.8.3 2.5.8 5.4 1 6.6 1.5 7.6 2 16.9 2 38.9.1 26.7-.5 36.3-2.9 49-.9 4.4-1.7 8.9-1.9 10-1.4 9-6.4 24.2-11 33.5-5 10.2-10.1 17.3-18.8 26.1-9.1 9.1-15.9 14-27.4 19.8-6.7 3.3-10 4.5-17.9 6.7-13.4 3.7-34.5 3.6-47.5-.2-3-.8-6.1-1.6-6.7-1.6-.7-.1-1.3-.5-1.3-1s-.4-.7-.9-.4c-1.3.9-16.7-7.2-23.6-12.2-8.1-6-19.3-17.5-23.7-24.2-5.8-8.8-11.5-20.7-14.6-30.5-1.5-4.8-1.8-5.9-2.5-8.8-.2-.6-.6-2.1-1-3.2-.3-1.1-.8-3.1-1.1-4.5-.2-1.4-.9-5.2-1.5-8.5-3.9-21.2-4.7-66-1.6-83.8.3-1.6.8-5 1-7.5.7-7.7 5.5-26.2 9.2-35.7 9.5-24.3 29.1-46.4 49.3-55.7 6.6-3 8.4-3.7 14.5-5.5 4.2-1.2 11-2.4 16.5-2.9 3.6-.3 6.6-.7 6.7-.8.5-.4 15 .2 20.6.8zm2093.4-140.7c-.1 0-4.1.4-8.9.7-4.8.3-10.2.8-12 1.1-1.8.3-5.1.7-7.3 1-2.2.2-5.6.7-7.5 1.1-1.9.3-4.2.7-5 .8-.8.1-2.8.6-4.5 1-1.6.4-6.5 1.6-10.7 2.7-15.7 3.9-31.6 10-43 16.6-3.1 1.8-5.9 3.3-6.1 3.3-1.9 0-30.7 20.8-30.7 22.2 0 .4-.4.8-.9.8-2.4 0-26.6 24.1-39 39-1.1 1.4-3.4 4-4.9 5.9l-2.9 3.4v-89.8h-99.1c-65.3 0-99.3.3-99.5 1-.2.5-.3 124.7-.3 276l.1 275 105.6.3 105.6.2v-139.2c.1-76.6.4-143.1.7-147.8.8-10.9 1.9-21.1 3.1-27 .3-1.4.8-4.1 1.1-6 1.7-9.5 6.4-25.2 7.9-26.2.5-.4.7-.8.3-.8-1.2 0 4.9-12.6 9-18.7 4.8-7.1 10.8-13.2 18.7-19.1 5-3.7 12.5-8.2 14.5-8.7.3-.1 1.8-.7 3.3-1.3 1.6-.7 3.3-1.2 3.8-1.2s1.7-.4 2.7-1c4.5-2.4 33.1-4 37.2-2 .8.5 3.1 1 5 1.3 22.8 3.5 43.9 25 49.5 50.5.3 1.2.7 3.2 1.1 4.4 1 4.4 2.5 15.4 3 22.3.9 13.8.9 15.7.1 16.2-.4.2-.4.9-.1 1.5.9 1.5 1 17.8.1 17.8-.4 0-.4.7.1 1.6.5.9.6 3.1.2 4.9-.4 1.8-.5 3.7-.1 4.3.8 1.3.6 14.7-.3 16.1-.4.6-.4 1.1.1 1.1.4 0 .8 2.7.8 6s-.4 6-.8 6-.3.8.2 1.9c.6 1 .8 2.1.5 2.3-.5.6-.5 3.8-.1 13.6.1 3.4-.2 6.2-.6 6.2-.4 0-.3.8.2 1.9.6 1 .8 2 .6 2.3-.6.5-.6 3.2-.3 21.1.2 8.1-.1 14.7-.5 14.7s-.3.8.2 1.9c.6 1 .8 2.1.5 2.3-.5.6-.5 3.8-.1 13.6.1 3.4-.2 6.2-.6 6.2-.4 0-.4.7.1 1.6.5.9.6 3.1.2 4.9-.4 1.8-.5 3.7-.1 4.3.8 1.3.6 14.7-.3 16.1-.4.6-.4 1.1.1 1.1.4 0 .8 2.7.8 6s-.4 6-.8 6-.3.8.2 1.9c.6 1 .8 2.1.5 2.3-.5.6-.5 3.8-.1 13.6.1 3.4-.2 6.2-.6 6.2-.4 0-.3.8.2 1.9.6 1 .8 2 .6 2.3-.6.5-.6 3.2-.3 21.1.2 8.1-.1 14.7-.5 14.7s-.3.8.2 1.9c.6 1 .8 2.1.5 2.3-.5.6-.5 3.8-.1 13.6.1 3.4-.2 6.2-.6 6.2-.4 0-.3.8.2 1.9.6 1 .8 2 .6 2.3-.5.5-.6 4-.3 14.1.2 4.2-.1 7.7-.6 7.7s-.3.7.4 1.5c1.1 1.3 13.8 1.5 106.3 1.3l105.1-.3-.1-182.5c0-168.3-.2-192.2-1.8-205-.3-2.5-.7-6.5-1-9-.2-2.5-.6-5.6-.9-7-.3-1.4-.7-4.1-1-6-.4-3-1.5-8.5-3-15.5-1.1-5.1-3.7-14.5-5.4-19.5-1.1-3-2-5.7-2-6-.1-.5-.7-2.3-4.2-11-4.3-11-14.1-27.9-22.3-38.5-10.6-13.7-29.3-30.1-41-36.1-1.8-.9-3.4-2-3.7-2.3-1.1-1.5-18.2-9-27.5-12.1-5.5-1.8-10.7-3.5-11.5-3.8-.8-.3-2.1-.6-2.9-.8-.7-.1-3.4-.7-6-1.3-2.5-.6-5.7-1.3-7.1-1.5-1.4-.3-2.5-.5-2.5-.6 0-.1-1.1-.3-2.5-.4-1.4-.2-4.5-.6-7-.9-9.8-1.4-18.1-2-32.8-2.1-8.5 0-15.4 0-15.5.1zM2356 1823c-.4.3-.7 124-.6 275l.1 274.5h104.8c71.2.1 105.1-.3 105.5-1 .8-1.2 1-548.4.2-548.6-1.7-.4-209.3-.3-210 .1z"/></svg>